<svg xmlns="http://www.w3.org/2000/svg" version="1.1" x="0" y="0" viewBox="0 0 58 58" xml:space="preserve"><path d="M57.2 35c0-1.7-1.1-3.1-2.1-4 1.3-1.4 1.4-3.6 1.3-4.8-0.2-3.6-3.1-4.8-4.9-4.9H38.2c1.1-5.3 0.7-9.1 0.7-9.4-0.8-4.7-2.5-7.6-5.1-8.7-3.3-1.4-6.6 0.7-6.7 0.8-0.4 0.3-0.6 0.7-0.5 1.2l0.7 8.6-6.6 12.3c0-0.7-0.6-1.3-1.3-1.3H2.2c-0.7 0-1.4 0.6-1.4 1.4v27.4c0 0.7 0.6 1.4 1.4 1.4h17.2c0.7 0 1.3-0.6 1.3-1.4v-0.1c2.3 1.2 4.5 1.3 4.7 1.3h20.5c2.3-0.1 3.6-1.1 4.3-2 1.3-1.7 1.3-3.9 1.1-5.2 1.5-0.7 2.5-1.8 3.1-3.1 0.7-1.7 0.5-3.5 0.1-4.6C56.3 39 57.2 37.3 57.2 35zM18 52.5H3.4V27.6H18v2.5 21.2C18 51.3 18 52.5 18 52.5zM52.2 38.4c-0.3 0.2-0.5 0.5-0.6 0.7-0.1 0.4-0.1 0.7 0.1 1 0 0 1 2 0.3 3.6-0.4 0.9-1.3 1.6-2.5 2.1-0.6 0.3-1 0.9-0.8 1.5 0.2 0.7 0.4 3-0.5 4.1-0.5 0.6-1.2 0.9-2.3 0.9H25.5c0 0-2.6-0.2-4.8-1.8V30.8l1.2-1.2c0.1-0.1 0.2-0.2 0.3-0.3L29.8 15c0.1-0.2 0.2-0.5 0.2-0.7l-0.7-8.2c0.8-0.4 2.3-0.8 3.5-0.3 1.7 0.7 3 3.1 3.5 6.7 0 0 0.4 4.3-1 10-0.1 0.4 0 0.8 0.3 1.2 0.3 0.4 0.6 0.5 1 0.5h14.2 0.7c0.3 0 2.3 0.3 2.3 2.4 0 0 0.3 2.7-1.3 3.3-0.5 0.2-0.8 0.6-0.8 1.2s0.2 1 0.6 1.3c0.4 0.3 2.3 1.5 2.3 2.8C54.6 36.5 54.2 37.5 52.2 38.4z"/></svg>