<svg xmlns="http://www.w3.org/2000/svg" version="1.1" x="0" y="0" viewBox="0 0 58 58" xml:space="preserve"><path d="M31 58h-4.1c-0.8 0-1.7-0.6-1.8-1.4l-0.4-1.5c-1.3-0.2-2.3-1.3-2.3-2.6v-1.7c0-0.8 0.7-1.7 1.7-1.7h9.8c0.8 0.1 1.6 0.8 1.6 1.7v1.7c0 1.3-1 2.4-2.3 2.6l-0.4 1.5C32.5 57.3 31.8 58 31 58zM29 8.8c0.8 0 1.6-0.7 1.6-1.6V1.6C30.6 0.8 29.9 0 29 0c-0.8 0-1.6 0.7-1.6 1.6v5.6C27.4 8.2 28.2 8.8 29 8.8zM3 29.2h5.6c0.8 0 1.6-0.7 1.6-1.6 0-0.9-0.7-1.6-1.6-1.6H3c-0.8 0-1.6 0.7-1.6 1.6C1.4 28.5 2.1 29.2 3 29.2zM55 26.1h-5.6c-0.8 0-1.6 0.7-1.6 1.6 0 0.9 0.7 1.6 1.6 1.6H55c0.8 0 1.6-0.7 1.6-1.6C56.7 26.7 56 26.1 55 26.1zM15.6 40.9c-0.6-0.6-1.6-0.6-2.2 0l-4 4c-0.7 0.7-0.7 1.7 0 2.3 0.3 0.3 0.7 0.5 1.1 0.5 0.4 0 0.8-0.2 1.1-0.5l4-4C16.3 42.5 16.3 41.6 15.6 40.9zM43.5 14.8c0.4 0 0.8-0.2 1.1-0.5l4-4c0.7-0.7 0.7-1.7 0-2.3s-1.7-0.7-2.3 0l-4 4c-0.7 0.7-0.7 1.7 0 2.3C42.6 14.6 43 14.8 43.5 14.8zM13.4 14.3c0.3 0.3 0.7 0.5 1.1 0.5 0.4 0 0.8-0.2 1.1-0.5 0.7-0.7 0.7-1.7 0-2.3l-4-4C11 7.4 10 7.4 9.4 8.1c-0.6 0.7-0.7 1.7 0 2.3L13.4 14.3zM44.5 40.9c-0.7-0.7-1.7-0.7-2.3 0-0.7 0.7-0.7 1.7 0 2.3l4 4c0.3 0.3 0.7 0.5 1.1 0.5 0.4 0 0.8-0.2 1.1-0.5 0.7-0.7 0.7-1.7 0-2.3L44.5 40.9zM14.1 28c-0.1-8.2 6.6-14.9 14.7-15h0.1c8.2 0 14.9 6.6 14.9 14.8 0 3.8-1.5 7.6-4.1 10.3-1.5 1.6-2.5 3.5-2.8 5.7-0.3 1.8-1.9 3.3-3.8 3.3H25c-1.9 0-3.4-1.3-3.8-3.3-0.3-2.1-1.3-4.1-2.8-5.7C15.6 35.3 14.1 31.8 14.1 28zM17.4 28c0.1 2.9 1.3 5.7 3.3 7.9 1.9 2 3.3 4.6 3.7 7.5 0.1 0.3 0.3 0.5 0.6 0.5h2.6v-9.7l-3.4-3.4c-0.6-0.6-0.6-1.6 0-2.2l0 0c0.6-0.6 1.6-0.6 2.2 0l2.8 2.8 2.8-2.8c0.6-0.6 1.6-0.6 2.2 0l0 0c0.6 0.6 0.6 1.6 0 2.2l-3.4 3.4v9.5h2.6c0.3 0 0.6-0.3 0.6-0.5 0.4-2.8 1.7-5.4 3.7-7.5 2.1-2.1 3.3-5 3.3-8 0-6.4-5.2-11.5-11.6-11.5h-0.1C22.4 16.3 17.3 21.5 17.4 28z"/></svg>