<svg xmlns="http://www.w3.org/2000/svg" xmlns:xlink="http://www.w3.org/1999/xlink" version="1.1" id="Layer_1" x="0px" y="0px" viewBox="0 0 58 58" xml:space="preserve" enable-background="new 0 0 58 58">
  <path d="M36.5 26.1v-6.2c0.4-0.3 0.6-0.7 0.6-1.3 0-0.9-0.7-1.6-1.6-1.6h-4.9v-0.2c6.3-0.8 11.1-6.1 11.1-12.5 0-0.9-0.7-1.6-1.6-1.6 -3.8 0-7.1 1.7-9.5 4.3V3.9c0-0.9-0.7-1.6-1.6-1.6 -0.9 0-1.6 0.7-1.6 1.6v0.6c-2.3-2.6-5.7-4.3-9.5-4.3 -0.9 0-1.6 0.7-1.6 1.6 0 6.4 4.8 11.7 11.1 12.5v2.6h-4.9c-0.9 0-1.6 0.7-1.6 1.6 0 0.5 0.2 1 0.6 1.3v6.2c-5.8 2.7-9.4 8.6-9.4 15C12.2 50.5 19.7 58 29 58s16.8-7.5 16.8-16.8C45.8 34.7 42.2 28.9 36.5 26.1zM38.3 6.1c-0.7 3.8-3.7 6.8-7.5 7.5C31.5 9.8 34.5 6.8 38.3 6.1zM19.7 3.6c3.8 0.7 6.8 3.7 7.5 7.5C23.5 10.4 20.4 7.4 19.7 3.6zM30.6 20.2h2.6v6.9c0 0.6 0.4 1.2 1 1.4 3.2 1.3 5.6 3.8 7.1 6.7H30.6V20.2zM23.8 28.6c0.6-0.2 1-0.8 1-1.4v-6.9h2.6v15H16.7C18.1 32.3 20.6 29.9 23.8 28.6zM29 54.8c-4.2 0-7.9-1.9-10.4-4.9h2c0.9 0 1.6-0.7 1.6-1.6 0-0.9-0.7-1.6-1.6-1.6h-4c-0.4-0.9-0.7-1.8-1-2.9h7.9c0.9 0 1.6-0.7 1.6-1.6 0-0.9-0.7-1.6-1.6-1.6h-8.2c0-0.7 0.1-1.4 0.2-2.2h26.7c0.2 0.9 0.2 1.8 0.2 2.6C42.6 48.7 36.5 54.8 29 54.8z"/>
</svg>
