<?xml version="1.0" encoding="utf-8"?>
<!-- Generator: Adobe Illustrator 16.0.0, SVG Export Plug-In . SVG Version: 6.00 Build 0)  -->
<!DOCTYPE svg PUBLIC "-//W3C//DTD SVG 1.1//EN" "http://www.w3.org/Graphics/SVG/1.1/DTD/svg11.dtd">
<svg version="1.1" id="Layer_1" xmlns="http://www.w3.org/2000/svg" xmlns:xlink="http://www.w3.org/1999/xlink" x="0px" y="0px"
	 width="40px" height="40px" viewBox="0 0 40 40" enable-background="new 0 0 40 40" xml:space="preserve">
<g>
	<path fill="#FFFFFF" d="M17.5,14.5c0,0.504,0,3,0,3h-2v2.994l2,0.006v10h4v-10h3c0,0,0-0.985,0-3c-0.35,0-3,0-3,0s0-2.657,0-3
		c0-0.344,0.569-1,1-1c0.43,0,1.16,0,2,0c0-0.459,0-1.537,0-3c-1.121,0-2.438,0-3,0C17.307,10.5,17.5,13.997,17.5,14.5z"/>
</g>
</svg>
