<svg xmlns="http://www.w3.org/2000/svg" version="1.1" x="0" y="0" viewBox="0 0 90 90" xml:space="preserve" enable-background="new 0 0 90 90"><path class="st0" d="M45 85.9c-0.8 0-1.5-0.3-2.1-0.8L9.2 51.3l-0.2-0.3c-11.2-11.5-12-29.3-1.7-39.7 9.8-9.8 26.2-9.6 37.7-0.1 11.5-9.5 27.9-9.7 37.7 0.1l0 0c10.4 10.4 9.6 28.2-1.7 39.7l-0.2 0.3L47 85.1C46.5 85.6 45.8 85.9 45 85.9zM25.5 9.9c-5.3-0.1-10.3 1.9-14.1 5.6C3.3 23.6 4.1 37.8 13.2 47l0.2 0.2L45 78.9l31.6-31.6 0.2-0.2c9.1-9.3 9.9-23.4 1.8-31.5-8.1-8.1-22.3-7.3-31.5 1.7-1.2 1.1-2.9 1.1-4.1 0C38.3 12.6 32 10 25.5 9.9z"/></svg>