<svg xmlns="http://www.w3.org/2000/svg" version="1.1" x="0" y="0" viewBox="0 0 65.3 65.3" xml:space="preserve"><path class="st0" d="M15.9 26.6l0.8 0.6c0.1 0.1 5.8 4.9 5.8 15.5v6.1c-2.3 0.3-4 2.2-4 4.5 0 2.3 1.8 4.2 4 4.5v6.1h20.3v-6.1c2.3-0.3 4-2.2 4-4.5 0-2.3-1.8-4.2-4-4.5v-6.1c0-10.5 5.7-15.4 5.8-15.5l0.8-0.6L32.6 7.7 15.9 26.6zM32.6 28.6c1.7 0 3.1 1.4 3.1 3.1s-1.4 3.1-3.1 3.1c-1.7 0-3.1-1.3-3.1-3.1S30.9 28.6 32.6 28.6zM24.5 62.1v-4h16.3v4H24.5zM44.9 53.5c0 1.4-1.2 2.5-2.5 2.5H23c-1.4 0-2.5-1.2-2.5-2.5 0-1.4 1.2-2.5 2.5-2.5h19.3C43.7 50.9 44.9 52.1 44.9 53.5zM40.7 42.8v6.1H24.5v-6.1c0-9.3-4-14.5-5.7-16.3l12.8-14.6v14.7c-2.3 0.5-4 2.5-4 5 0 2.8 2.3 5 5 5s5-2.3 5-5c0-2.4-1.7-4.5-4-5V11.9l12.9 14.6C44.8 28.3 40.7 33.5 40.7 42.8zM64.1 7.2V1.1H58v2.1H7.2V1.1H1.1v6.1h6.1V5.2h14.7C11.2 9.4 3.6 19.6 3.2 31.6H1.1v6.1h6.1v-6.1h-2C5.7 17 17.9 5.2 32.6 5.2S59.5 17 60.1 31.6h-2v6.1h6.1v-6.1h-2.1C61.7 19.6 54 9.4 43.4 5.2h14.7v2.1C58.1 7.2 64.1 7.2 64.1 7.2zM5.2 5.2h-2v-2h2.1L5.2 5.2 5.2 5.2zM5.2 35.7h-2v-2.1h2.1L5.2 35.7 5.2 35.7zM62.1 35.7h-2.1v-2.1h2.1V35.7zM60.1 3.2h2.1v2.1h-2.1V3.2z"/></svg>