<?xml version="1.0" encoding="utf-8"?>
<!-- Generator: Adobe Illustrator 16.0.0, SVG Export Plug-In . SVG Version: 6.00 Build 0)  -->
<!DOCTYPE svg PUBLIC "-//W3C//DTD SVG 1.1//EN" "http://www.w3.org/Graphics/SVG/1.1/DTD/svg11.dtd">
<svg version="1.1" id="Layer_1" xmlns="http://www.w3.org/2000/svg" xmlns:xlink="http://www.w3.org/1999/xlink" x="0px" y="0px"
	 width="40px" height="40px" viewBox="0 0 40 40" enable-background="new 0 0 40 40" xml:space="preserve">
<g>
	<path fill="#FFFFFF" d="M26.071,9.938H13.803c-2.132,0-3.865,1.734-3.865,3.865v12.271c0,2.131,1.734,3.864,3.865,3.864h12.271
		c2.131,0,3.864-1.734,3.864-3.864V13.803C29.938,11.672,28.203,9.938,26.071,9.938L26.071,9.938z M27.289,12.174l0.438-0.001v3.319
		l-3.344,0.011l-0.011-3.319L27.289,12.174z M19.938,16.592c2.774,0,3.346,2.604,3.346,3.347c0,1.843-1.502,3.345-3.346,3.345
		c-1.846,0-3.346-1.502-3.346-3.345C16.591,19.195,17.164,16.592,19.938,16.592L19.938,16.592z M27.745,25.83
		c0,1.057-0.858,1.916-1.917,1.916H14.009c-1.058,0-1.917-0.858-1.917-1.916v-8.119h2.777c-0.258,0.635-0.403,1.501-0.403,2.228
		c0,3.015,2.452,5.469,5.468,5.469c3.017,0,5.468-2.454,5.468-5.469c0-0.727-0.146-1.593-0.402-2.228h2.744v8.119H27.745z
		 M27.745,25.83"/>
</g>
</svg>
