<svg xmlns="http://www.w3.org/2000/svg" version="1.1" x="0" y="0" viewBox="0 0 90 90" xml:space="preserve"><g transform="translate(0,-952.36218)"><path class="st0" d="M3.3 959.7c-1 0-2 0.9-2 2s1 2 2 2h3v49.6h-3c-1 0-2 0.9-2 2s1 2 2 2H43v6.8l-15.9 9.3c-0.9 0.5-1.2 1.8-0.7 2.7s1.8 1.3 2.7 0.7l15.9-9.3 15.9 9.3c0.9 0.5 2.2 0.2 2.7-0.7s0.2-2.2-0.7-2.7L47 1024v-6.8h39.7c1 0 2-0.9 2.1-1.9 0-1-0.9-2-1.9-2.1 -0.1 0-0.1 0-0.2 0h-3v-49.6h3c1 0 2-0.9 2.1-1.9s-0.9-2-1.9-2.1c-0.1 0-0.1 0-0.2 0L3.3 959.7 3.3 959.7zM10.2 963.6h69.5v49.6H10.2V963.6zM60.6 969.6c-1 0.1-1.8 1-1.8 2v33.8c0 1 0.9 2 2 2 1 0 2-1 2-2v-33.8C62.9 970.4 61.8 969.4 60.6 969.6zM49.7 979.5c-1 0.1-1.8 1-1.8 2v23.8c0 1 0.9 2 2 2 1 0 2-1 2-2v-23.8C51.9 980.4 50.8 979.4 49.7 979.5zM38.8 989.4c-1 0.1-1.8 1-1.8 2v13.9c0 1 0.9 2 2 2 1 0 2-1 2-2v-13.9C41 990.3 39.9 989.3 38.8 989.4zM27.9 997.4c-1 0.1-1.8 1-1.8 2v6c0 1 0.9 2 2 2s2-1 2-2v-6C30.1 998.3 29 997.2 27.9 997.4z"/></g></svg>