<?xml version="1.0" encoding="utf-8"?>
<!-- Generator: Adobe Illustrator 16.0.0, SVG Export Plug-In . SVG Version: 6.00 Build 0)  -->
<!DOCTYPE svg PUBLIC "-//W3C//DTD SVG 1.1//EN" "http://www.w3.org/Graphics/SVG/1.1/DTD/svg11.dtd">
<svg version="1.1" id="Layer_1" xmlns="http://www.w3.org/2000/svg" xmlns:xlink="http://www.w3.org/1999/xlink" x="0px" y="0px"
	 width="40px" height="40px" viewBox="0 0 40 40" enable-background="new 0 0 40 40" xml:space="preserve">
<g>
	<path fill="#FFFFFF" d="M29.988,18.326c-0.007-0.402-0.039-0.91-0.094-1.523c-0.057-0.614-0.137-1.163-0.24-1.646
		c-0.119-0.543-0.378-1.001-0.775-1.373c-0.398-0.372-0.861-0.588-1.391-0.647c-1.651-0.186-4.147-0.278-7.488-0.278
		s-5.837,0.093-7.489,0.278c-0.528,0.06-0.99,0.275-1.384,0.647c-0.395,0.372-0.651,0.83-0.771,1.373
		c-0.111,0.483-0.195,1.032-0.251,1.646c-0.056,0.613-0.087,1.121-0.095,1.523C10.004,18.728,10,19.286,10,20
		s0.004,1.272,0.011,1.674c0.007,0.402,0.039,0.91,0.095,1.523c0.056,0.614,0.136,1.163,0.24,1.646
		c0.119,0.543,0.377,1.001,0.775,1.373c0.398,0.371,0.861,0.587,1.39,0.646c1.652,0.187,4.148,0.279,7.489,0.279
		s5.837-0.093,7.488-0.279c0.529-0.06,0.99-0.275,1.385-0.646c0.395-0.372,0.65-0.83,0.77-1.373
		c0.111-0.483,0.195-1.032,0.252-1.646c0.055-0.613,0.087-1.121,0.094-1.523C29.996,21.272,30,20.714,30,20
		S29.996,18.728,29.988,18.326z M23.951,20.603l-5.714,3.571c-0.104,0.074-0.231,0.111-0.38,0.111c-0.111,0-0.227-0.029-0.346-0.089
		c-0.246-0.134-0.368-0.343-0.368-0.625v-7.143c0-0.282,0.123-0.491,0.368-0.625c0.253-0.134,0.495-0.127,0.726,0.022l5.714,3.571
		c0.223,0.126,0.334,0.327,0.334,0.603S24.174,20.477,23.951,20.603z"/>
</g>
</svg>
