<svg version="1.1" id="Layer_1" xmlns="http://www.w3.org/2000/svg" xmlns:xlink="http://www.w3.org/1999/xlink" x="0px" y="0px"
	 viewBox="0 0 4 6.8" style="enable-background:new 0 0 4 6.8;" xml:space="preserve">
	<g>
		<path class="st0" d="M3.9,3.6L0.8,6.7c0,0-0.1,0.1-0.2,0.1s-0.1,0-0.2-0.1L0.1,6.4c0,0-0.1-0.1-0.1-0.2S0,6.1,0.1,6l2.6-2.6
			L0.1,0.8c0,0-0.1-0.1-0.1-0.2s0-0.1,0.1-0.2l0.3-0.3c0,0,0.1-0.1,0.2-0.1s0.1,0,0.2,0.1l3.1,3.1c0,0,0.1,0.1,0.1,0.2
			S3.9,3.5,3.9,3.6z"/>
	</g>
</svg>
