<?xml version="1.0" encoding="UTF-8" standalone="no"?>
<svg width="26px" height="27px" viewBox="0 0 26 27" version="1.1" xmlns="http://www.w3.org/2000/svg" xmlns:xlink="http://www.w3.org/1999/xlink">
    <!-- Generator: Sketch 42 (36781) - http://www.bohemiancoding.com/sketch -->
    <title>Insta_Icon</title>
    <desc>Created with Sketch.</desc>
    <defs></defs>
    <g id="Page-1" stroke="none" stroke-width="1" fill="none" fill-rule="evenodd">
        <g id="Group" transform="translate(-194.000000, 0.000000)" fill="#FFFFFF">
            <g id="Insta_Icon" transform="translate(194.044944, 0.000000)">
                <g id="Instagram-Icon">
                    <g id="Group-3" transform="translate(0.000000, 0.009713)">
                        <path d="M23.5625612,19.3232407 C23.5625612,22.0577406 21.3906435,24.2823123 18.7210553,24.2823123 L7.13530235,24.2823123 C4.46586706,24.282469 2.29410235,22.0577406 2.29410235,19.3232407 L2.29410235,7.45593402 C2.29410235,4.72159075 4.46586706,2.4968624 7.13530235,2.4968624 L18.7209024,2.4968624 C21.3904906,2.4968624 23.5624082,4.72159075 23.5624082,7.45593402 L23.5624082,19.3232407 L23.5625612,19.3232407 Z M18.7209024,0.146962726 L7.13530235,0.146962726 C3.20089059,0.146962726 -1.52941177e-05,3.42585607 -1.52941177e-05,7.45593402 L-1.52941177e-05,19.3232407 C-1.52941177e-05,23.3534753 3.20089059,26.632212 7.13530235,26.632212 L18.7209024,26.632212 C22.65562,26.632212 25.8565259,23.3533186 25.8565259,19.3232407 L25.8565259,7.45593402 C25.8566788,3.42585607 22.65562,0.146962726 18.7209024,0.146962726 L18.7209024,0.146962726 Z" id="Fill-1"></path>
                    </g>
                    <path d="M12.9282859,17.8737443 C10.5196153,17.8737443 8.55982706,15.8666166 8.55982706,13.3993786 C8.55982706,10.9319839 10.5194624,8.92469965 12.9282859,8.92469965 C15.3371094,8.92469965 17.2967447,10.9319839 17.2967447,13.3993786 C17.2967447,15.8666166 15.3369565,17.8737443 12.9282859,17.8737443 M12.9282859,6.57495663 C9.25448588,6.57495663 6.26570941,9.63640593 6.26570941,13.3995353 C6.26570941,17.1625079 9.25448588,20.2238006 12.9282859,20.2238006 C16.6020859,20.2238006 19.5908624,17.1625079 19.5908624,13.3995353 C19.5908624,9.63640593 16.6020859,6.57495663 12.9282859,6.57495663" id="Fill-4"></path>
                    <path d="M19.87024,4.5824297 C19.42824,4.5824297 18.99404,4.76572187 18.6818871,5.08687483 C18.3682047,5.40646118 18.1878871,5.85137552 18.1878871,6.30568946 C18.1878871,6.75859346 18.3683576,7.20335113 18.6818871,7.52450409 C18.9938871,7.84409045 19.42824,8.02894922 19.87024,8.02894922 C20.3137694,8.02894922 20.7465929,7.84409045 21.0601224,7.52450409 C21.3738047,7.20335113 21.5525929,6.7584368 21.5525929,6.30568946 C21.5525929,5.85137552 21.3738047,5.40646118 21.0601224,5.08687483 C20.7481224,4.76572187 20.3137694,4.5824297 19.87024,4.5824297" id="Fill-6"></path>
                </g>
            </g>
        </g>
    </g>
</svg>