
<svg width="40px" height="42px" viewBox="118 14 40 42" version="1.1" xmlns="http://www.w3.org/2000/svg" xmlns:xlink="http://www.w3.org/1999/xlink">
    <!-- Generator: Sketch 42 (36781) - http://www.bohemiancoding.com/sketch -->
    <desc>Created with Sketch.</desc>
    <defs>
        <polygon id="path-1" points="39.615625 0.38647541 0 0.38647541 0 40.3277428 39.615625 40.3277428"></polygon>
    </defs>
    <g id="VCF_Square" stroke="none" fill="none" transform="translate(118.000000, 14.000000)" stroke-width="1" fill-rule="evenodd">
        <g id="Page-1">
            <path d="M25.840875,24.2735543 L25.840875,22.6806035 L22.5704583,22.6806035 L22.5704583,24.1382879 C22.5704583,25.2330215 21.920875,25.7451014 21.257125,25.8702859 L21.257125,28.7474273 C24.0737917,28.5571301 25.840875,27.0297121 25.840875,24.2735543" id="Fill-1" fill="#FFFFFF"></path>
            <path d="M22.571,16.9401834 L22.571,18.3978678 L25.841,18.3978678 L25.841,16.8053371 C25.841,14.0491793 24.0730833,12.5213412 21.25725,12.3314641 L21.25725,15.2081855 C21.9205833,15.33379 22.571,15.8458699 22.571,16.9401834" id="Fill-3" fill="#FFFFFF"></path>
            <polygon id="Fill-5" fill="#FFFFFF" points="31.9280833 26.9509887 31.9280833 12.7085297 28.64225 12.7085297 28.64225 28.3637244 31.9280833 28.3637244"></polygon>
            <polygon id="Fill-7" fill="#FFFFFF" points="35.729375 21.8757264 35.729375 19.172499 33.010625 19.172499 33.010625 21.8757264 34.485625 21.8757264"></polygon>
            <polygon id="Fill-9" fill="#FFFFFF" points="37.1295 15.4343996 37.1295 12.7084877 33.0099167 12.7084877 33.0099167 15.4343996 35.6395 15.4343996"></polygon>
            <polygon id="Fill-11" fill="#FFFFFF" points="9.72554167 28.3634303 6.318875 12.7086557 2.922625 12.7086557 6.48679167 28.3634303"></polygon>
            <polygon id="Fill-13" fill="#FFFFFF" points="14.1375833 12.7086137 10.873 12.7086137 9.0205 20.0424047 10.488 26.7910215"></polygon>
            <path d="M20.178,28.7492336 L20.178,25.8678914 C19.3571667,25.7107807 18.8646667,25.066375 18.8646667,24.1854631 L18.8646667,16.8928402 C18.8646667,16.0123484 19.3571667,15.3671025 20.178,15.210832 L20.178,12.3290697 C17.20175,12.5403709 15.4846667,14.2396025 15.4846667,17.0873381 L15.4846667,23.9918053 C15.4846667,26.8387008 17.20175,28.5387725 20.178,28.7492336" id="Fill-15" fill="#FFFFFF"></path>
            <g id="Group-19" transform="translate(0.000000, 0.033607)">
                <mask id="mask-2" fill="white">
                    <use xlink:href="#path-1"></use>
                </mask>
                <g id="Clip-18"></g>
                <path d="M-0.000208333333,0.386349385 L-0.000208333333,40.3277428 L36.1002083,40.3277428 L39.615625,40.3277428 L39.615625,34.798624 L39.615625,5.0660625 L39.615625,0.386349385 L-0.000208333333,0.386349385 Z M9.725625,28.3302018 L6.486875,28.3302018 L2.92270833,12.6750072 L6.31854167,12.6750072 L9.725625,28.3302018 Z M9.02020833,20.0087982 L10.873125,12.6750072 L14.1377083,12.6750072 L10.488125,26.757415 L9.02020833,20.0087982 Z M20.178125,25.8340748 L20.178125,28.7158371 C17.201875,28.5057961 15.4847917,26.8053043 15.4847917,23.9579887 L15.4847917,17.0535215 C15.4847917,14.2057859 17.201875,12.5069744 20.178125,12.2956732 L20.178125,15.1770154 C19.3572917,15.3332859 18.864375,15.9785318 18.864375,16.8590236 L18.864375,24.1516465 C18.864375,25.0325584 19.3572917,25.6773842 20.178125,25.8340748 L20.178125,25.8340748 Z M21.2572917,15.1744949 L21.2572917,12.2977736 C24.073125,12.4876506 25.8410417,14.0154887 25.8410417,16.7716465 L25.8410417,18.3641773 L22.570625,18.3641773 L22.570625,16.9064928 C22.570625,15.8121793 21.920625,15.3000994 21.2572917,15.1744949 L21.2572917,15.1744949 Z M22.570625,24.1045973 L22.570625,22.6469129 L25.8410417,22.6469129 L25.8410417,24.2398637 C25.8410417,26.9960215 24.073125,28.5234395 21.2572917,28.7137367 L21.2572917,25.8365953 C21.920625,25.7114109 22.570625,25.1993309 22.570625,24.1045973 L22.570625,24.1045973 Z M28.641875,28.3302018 L28.641875,12.6750072 L31.9285417,12.6750072 L31.9285417,26.9170461 L31.9285417,28.3302018 L28.641875,28.3302018 Z M35.7297917,19.1388084 L35.7297917,21.8420359 L34.4860417,21.8420359 L33.010625,21.8420359 L33.010625,19.1388084 L35.7297917,19.1388084 Z M33.010625,15.4009191 L33.010625,12.6750072 L37.1289583,12.6750072 L37.1289583,15.4009191 L35.6389583,15.4009191 L33.010625,15.4009191 Z" id="Fill-17" fill="#EE3D42" mask="url(#mask-2)"></path>
            </g>
        </g>
    </g>
</svg>