<?xml version="1.0" encoding="utf-8"?>
<!-- Generator: Adobe Illustrator 21.0.2, SVG Export Plug-In . SVG Version: 6.00 Build 0)  -->
<svg version="1.1" id="Layer_1" xmlns="http://www.w3.org/2000/svg" xmlns:xlink="http://www.w3.org/1999/xlink" x="0px" y="0px"
	 viewBox="0 0 94 50" style="enable-background:new 0 0 94 50;" xml:space="preserve">
<style type="text/css">
	.st0{fill:#FEFEFE;}
	.st1{fill:#181818;}
</style>
<title>Page 1</title>
<desc>Created with Sketch.</desc>
<g id="Dropdown-Menus">
	<g id="Matresses_Dropdown" transform="translate(-110.000000, -186.000000)">
		<g id="Page-1" transform="translate(110.000000, 186.000000)">
			<path id="Fill-1" class="st0" d="M84.3,49.3H9.1c-4.4,0-8.2-1.9-8.1-5.3L0.9,31.9c1.5-3.1,14.4-21.9,18.8-21.9h53.9
				c4.4,0,17.6,19.2,18.9,22.1l-0.2,11.8C92.6,47.6,88.7,49.3,84.3,49.3"/>
			<path class="st1" d="M84.3,49.8H9.1c-3.1,0-5.7-0.9-7.2-2.4c-0.9-0.9-1.4-2.1-1.3-3.4L0.4,31.8l0.1-0.1
				C1.8,29.1,14.9,9.6,19.7,9.6h53.9c5,0,18.2,19.9,19.4,22.4l0,0.1l-0.2,12c0.1,1.3-0.3,2.4-1.2,3.4C90.2,49,87.5,49.8,84.3,49.8z
				 M1.4,32.1l0.1,12c0,1,0.3,1.9,1.1,2.7c1.3,1.3,3.7,2.1,6.5,2.1h75.2c2.9,0,5.3-0.8,6.6-2.1c0.7-0.7,1-1.6,1-2.7l0.2-11.8
				c-1.9-3.8-14.5-21.7-18.4-21.7H19.7C15.9,10.6,3.4,28.1,1.4,32.1z"/>
			<path id="Fill-5" class="st0" d="M84.3,36.4H9.1c-4.4,0-8.9-2.7-8.1-5.3L11.6,5.9c1.5-3.1,3.6-5.3,8.1-5.3h53.9
				c4.4,0,6.7,2.4,8.1,5.3l10.7,25.2C93.6,34.1,88.7,36.4,84.3,36.4"/>
			<path class="st1" d="M84.3,36.9H9.1c-3.2,0-6.6-1.4-8-3.3c-0.6-0.9-0.8-1.8-0.5-2.6L11.2,5.7c1.4-2.8,3.4-5.6,8.5-5.6h53.9
				c4,0,6.8,1.8,8.5,5.6l10.7,25.2c0.4,0.9,0.3,1.9-0.3,2.8C91.3,35.5,87.8,36.9,84.3,36.9z M19.7,1.1c-4.5,0-6.3,2.4-7.6,5
				L1.4,31.3c-0.2,0.5,0,1.1,0.4,1.7c1.2,1.7,4.3,2.9,7.2,2.9h75.2c3.2,0,6.4-1.2,7.4-2.8c0.4-0.6,0.5-1.2,0.2-1.8L81.2,6.1
				c-1.6-3.4-4-5-7.6-5H19.7z"/>
		</g>
	</g>
</g>
</svg>
