<?xml version="1.0" encoding="utf-8"?>
<!-- Generator: Adobe Illustrator 21.0.2, SVG Export Plug-In . SVG Version: 6.00 Build 0)  -->
<svg version="1.1" id="Layer_1" xmlns="http://www.w3.org/2000/svg" xmlns:xlink="http://www.w3.org/1999/xlink" x="0px" y="0px"
	 viewBox="0 0 38.9 64.2" style="enable-background:new 0 0 38.9 64.2;" xml:space="preserve">
<style type="text/css">
	.st0{fill:#181818;}
	.st1{enable-background:new    ;}
</style>
<g>
	<path class="st0" d="M33.6,29.1H5.3c-0.1,0-0.3-0.1-0.4-0.2c-0.1-0.1-0.1-0.2-0.1-0.4L6.4,0.5C6.4,0.2,6.6,0,6.9,0H32
		c0.3,0,0.5,0.2,0.5,0.5l1.6,28.1c0,0.1,0,0.3-0.1,0.4C33.9,29.1,33.8,29.1,33.6,29.1z M5.8,28.1h27.3L31.6,1H7.3L5.8,28.1z"/>
	<path class="st0" d="M38.4,33.9H0.5c-0.2,0-0.4-0.1-0.5-0.3c-0.1-0.2,0-0.4,0.1-0.5l4.8-4.9c0.1-0.1,0.2-0.1,0.4-0.1h28.4
		c0.1,0,0.3,0.1,0.4,0.1l4.8,4.9c0.1,0.1,0.2,0.4,0.1,0.5S38.6,33.9,38.4,33.9z M1.7,32.9h35.5l-3.8-3.9H5.5L1.7,32.9z"/>
</g>
<g class="st1">
	<g>
		<g>
			<path class="st0" d="M38.4,38.4H0.5c-0.3,0-0.5-0.2-0.5-0.5v-4.5c0-0.3,0.2-0.5,0.5-0.5h37.9c0.3,0,0.5,0.2,0.5,0.5v4.5
				C38.9,38.2,38.7,38.4,38.4,38.4z M1,37.4h36.9v-3.5H1V37.4z"/>
			<path class="st0" d="M3.9,64.2H0.5c-0.1,0-0.3-0.1-0.4-0.2S0,63.8,0,63.6l3.2-25.8c0-0.2,0.2-0.4,0.5-0.4h5
				c0.1,0,0.3,0.1,0.4,0.2c0.1,0.1,0.1,0.3,0.1,0.4L4.4,63.8C4.4,64,4.2,64.2,3.9,64.2z M1.1,63.2h2.5l4.6-24.8h-4L1.1,63.2z"/>
			<path class="st0" d="M38.4,64.2H35c-0.2,0-0.4-0.2-0.5-0.4L29.7,38c0-0.1,0-0.3,0.1-0.4c0.1-0.1,0.2-0.2,0.4-0.2h5
				c0.3,0,0.5,0.2,0.5,0.4l3.2,25.8c0,0.1,0,0.3-0.1,0.4C38.7,64.1,38.5,64.2,38.4,64.2z M35.4,63.2h2.5l-3.1-24.8h-4L35.4,63.2z"/>
		</g>
	</g>
</g>
</svg>
