<?xml version="1.0" encoding="utf-8"?>
<!-- Generator: Adobe Illustrator 21.0.2, SVG Export Plug-In . SVG Version: 6.00 Build 0)  -->
<svg version="1.1" id="Layer_1" xmlns="http://www.w3.org/2000/svg" xmlns:xlink="http://www.w3.org/1999/xlink" x="0px" y="0px"
	 viewBox="0 0 59.2 72.2" style="enable-background:new 0 0 59.2 72.2;" xml:space="preserve">
<style type="text/css">
	.st0{fill:#181818;}
</style>
<g>
	<path class="st0" d="M58.7,67.7H0.6c-0.3,0-0.5-0.2-0.5-0.5V0.5C0.1,0.2,0.3,0,0.6,0h58.1c0.3,0,0.5,0.2,0.5,0.5v66.7
		C59.2,67.5,59,67.7,58.7,67.7z M1.1,66.7h57.1V1H1.1V66.7z"/>
	<path class="st0" d="M55.3,4.3H3.9c-0.3,0-0.5-0.2-0.5-0.5V0.5C3.4,0.2,3.6,0,3.9,0h51.4c0.3,0,0.5,0.2,0.5,0.5v3.3
		C55.8,4.1,55.6,4.3,55.3,4.3z M4.4,3.3h50.4V1H4.4V3.3z"/>
	<path class="st0" d="M29.6,64.3H3.9c-0.3,0-0.5-0.2-0.5-0.5v-60c0-0.3,0.2-0.5,0.5-0.5h25.7c0.3,0,0.5,0.2,0.5,0.5v60
		C30.1,64.1,29.9,64.3,29.6,64.3z M4.4,63.3h24.7v-59H4.4V63.3z"/>
	<path class="st0" d="M55.3,64.3H29.6c-0.3,0-0.5-0.2-0.5-0.5v-60c0-0.3,0.2-0.5,0.5-0.5h25.7c0.3,0,0.5,0.2,0.5,0.5v60
		C55.8,64.1,55.6,64.3,55.3,64.3z M30.1,63.3h24.7v-59H30.1V63.3z"/>
	<path class="st0" d="M55.3,67.7H3.9c-0.3,0-0.5-0.2-0.5-0.5v-3.3c0-0.3,0.2-0.5,0.5-0.5h51.4c0.3,0,0.5,0.2,0.5,0.5v3.3
		C55.8,67.5,55.6,67.7,55.3,67.7z M4.4,66.7h50.4v-2.3H4.4V66.7z"/>
	<path class="st0" d="M58.7,67.7h-3.4c-0.3,0-0.5-0.2-0.5-0.5V0.5C54.8,0.2,55,0,55.3,0h3.4c0.3,0,0.5,0.2,0.5,0.5v66.7
		C59.2,67.5,59,67.7,58.7,67.7z M55.8,66.7h2.4V1h-2.4V66.7z"/>
	<path class="st0" d="M3.9,67.7H0.5c-0.3,0-0.5-0.2-0.5-0.5V0.5C0,0.2,0.2,0,0.5,0h3.4c0.3,0,0.5,0.2,0.5,0.5v66.7
		C4.4,67.5,4.2,67.7,3.9,67.7z M1.1,66.7h2.4V1H1.1V66.7z"/>
	<path class="st0" d="M9.5,72.1H5c-0.2,0-0.4-0.1-0.5-0.3c-0.1-0.2,0-0.4,0.1-0.5l4.5-4.4c0.1-0.1,0.2-0.1,0.4-0.1h6.7
		c0.2,0,0.4,0.1,0.5,0.4c0.1,0.2,0,0.4-0.2,0.6l-6.7,4.4C9.7,72.1,9.6,72.1,9.5,72.1z M6.3,71.1h3.1l5.2-3.4H9.8L6.3,71.1z"/>
	<path class="st0" d="M54.2,72.1h-4.5c-0.1,0-0.2,0-0.3-0.1l-6.7-4.4c-0.2-0.1-0.3-0.4-0.2-0.6s0.3-0.4,0.5-0.4h6.7
		c0.1,0,0.3,0.1,0.4,0.1l4.5,4.4c0.1,0.1,0.2,0.4,0.1,0.5C54.6,72,54.4,72.1,54.2,72.1z M49.9,71.1H53l-3.5-3.4h-4.8L49.9,71.1z"/>
	<path class="st0" d="M33,39.9c-0.3,0-0.5-0.2-0.5-0.5s0.2-0.5,0.5-0.5c1,0,1.7-0.8,1.7-1.7v-6.7c0-0.9-0.8-1.7-1.7-1.7
		c-0.3,0-0.5-0.2-0.5-0.5s0.2-0.5,0.5-0.5c1.5,0,2.7,1.2,2.7,2.7v6.7C35.7,38.7,34.5,39.9,33,39.9z"/>
	<path class="st0" d="M26.3,39.9c-1.5,0-2.7-1.2-2.7-2.7v-6.7c0-1.5,1.2-2.7,2.7-2.7c0.3,0,0.5,0.2,0.5,0.5s-0.2,0.5-0.5,0.5
		c-1,0-1.7,0.8-1.7,1.7v6.7c0,1,0.8,1.7,1.7,1.7c0.3,0,0.5,0.2,0.5,0.5S26.6,39.9,26.3,39.9z"/>
</g>
</svg>
