<?xml version="1.0" encoding="utf-8"?>
<!-- Generator: Adobe Illustrator 21.0.2, SVG Export Plug-In . SVG Version: 6.00 Build 0)  -->
<svg version="1.1" id="Layer_1" xmlns="http://www.w3.org/2000/svg" xmlns:xlink="http://www.w3.org/1999/xlink" x="0px" y="0px"
	 viewBox="0 0 1053.9 427.1" style="enable-background:new 0 0 1053.9 427.1;" xml:space="preserve">
<style type="text/css">
	.st0{fill:#181818;}
</style>
<g>
	<path class="st0" d="M647,353c-201.9,0-403.5,0-605.4,0c0,1.1,0,2,0,3c0,21.9,0,43.8,0,65.7c0,4.4-1,5.4-5.2,5.4
		c-10.3,0-20.7,0-31,0c-4.3,0-5.3-1-5.3-5.3C0,365.9,0,310,0,254.1c0-0.8,0-1.7,0-2.8c1,0,1.9-0.1,2.7-0.1c6.9,0,13.8-0.1,20.7,0
		c2.2,0,3-0.5,3-2.9c-0.1-16.3-0.1-32.7-0.1-49c0-12.4,6.6-20.6,18.8-22.9c4.4-0.8,8.9-0.7,13.4-0.8c4.5-0.1,9,0,13.7,0
		c0-58.6,0-117,0-175.5c181.3,0,362.4,0,543.8,0c0,58.4,0,116.8,0,175.5c1.2,0,2.2,0,3.2,0c6.8,0.1,13.7-0.1,20.5,0.3
		c6.3,0.3,11.9,2.9,16.5,7.3c3.9,3.7,5.9,8.1,5.8,13.6c0,17.2,0,34.3,0,51.5c0,0.9,0,1.8,0,3c8.9,0,17.5,0,26.4,0c0,1.2,0,2.1,0,2.9
		c0,55.9,0,111.8,0,167.7c0,4.3-1,5.3-5.3,5.3c-10.3,0-20.7,0-31,0c-4.3,0-5.3-1-5.3-5.3c0-21.9,0-43.8,0-65.7
		C647,355.1,647,354.1,647,353z M557.1,175.3c17.5,0,34.5,0,51.7,0c0-56.1,0-112,0-168c-176.4,0-352.7,0-529.1,0c0,56.1,0,112,0,168
		c17.2,0,34.3,0,51.5,0c0-1.2,0-2.2,0-3.2c0-15.3,0-30.7,0-46c0-4.7,1.1-8.9,4.1-12.5c5.6-6.8,13.1-9.6,21.6-9.6
		c48.7-0.1,97.5-0.1,146.2,0c5.2,0,10.3,1.1,14.8,3.8c7.1,4.2,11.1,10.1,11,18.7c-0.2,15.4,0,30.8,0,46.2c0,0.9,0,1.7,0,2.6
		c10.4,0,20.3,0,30.5,0c0-1,0-1.9,0-2.8c0-15.7,0-31.3,0-47c0-6,2.4-10.8,6.7-14.7c5.6-4.9,12.3-6.8,19.6-6.8c48.3,0,96.7,0,145,0
		c2.8,0,5.7,0.3,8.4,1c12,3,17.9,10.6,17.9,22.9c0,14.7,0,29.5,0,44.2C557.1,173.1,557.1,174.1,557.1,175.3z M681.1,258.5
		c-224.7,0-449.2,0-673.7,0c0,29.1,0,58.1,0,87.1c224.7,0,449.2,0,673.7,0C681.1,316.4,681.1,287.4,681.1,258.5z M33.6,250.9
		c207.2,0,414.2,0,621.2,0c0.1-0.6,0.2-1,0.2-1.4c0-17.6,0-35.2,0-52.7c0-3.7-1.6-6.6-4.3-8.9c-4.5-4-10-5-15.8-5
		c-193.7,0-387.3,0-581,0c-2.2,0-4.3,0.2-6.5,0.5c-8.9,1.4-13.8,7.2-13.8,16c0,10,0,20,0,30C33.6,236.4,33.6,243.5,33.6,250.9z
		 M366.9,175.2c61.2,0,122,0,182.8,0c0.1-0.5,0.2-0.8,0.2-1.1c0-16.4,0-32.8,0-49.2c0-3.4-1.5-6.3-4.1-8.5
		c-4.1-3.6-9.1-5.1-14.5-5.1c-48.7,0-97.3,0-146,0c-1.7,0-3.5,0.2-5.2,0.5c-8.8,1.7-13.3,7-13.3,15.9c0,14.8,0,29.7,0,44.5
		C366.9,173.1,366.9,174.1,366.9,175.2z M321.6,175.3c0-0.9,0-1.6,0-2.3c0-15.9,0-31.8,0-47.7c0-3.6-1.3-6.5-3.9-8.8
		c-4.1-3.7-9-5.2-14.4-5.2c-48.7,0-97.5,0-146.2,0c-1.7,0-3.5,0.2-5.2,0.5c-9,1.8-13.3,7.1-13.3,16.2c0,14.7,0,29.5,0,44.2
		c0,1,0,1.9,0,3C199.7,175.3,260.5,175.3,321.6,175.3z M7.5,353.1c0,22.3,0,44.4,0,66.6c9,0,17.8,0,26.6,0c0-22.2,0-44.3,0-66.6
		C25.2,353.1,16.4,353.1,7.5,353.1z M681.1,419.7c0.1-0.6,0.1-1.1,0.1-1.5c0-21.1,0-42.1,0-63.2c0-1.8-0.7-2.2-2.4-2.2
		c-7.3,0.1-14.6,0.1-22,0c-2.4,0-2.9,0.7-2.9,2.9c0.1,20.4,0,40.8,0,61.2c0,0.9,0,1.8,0,2.7C663.3,419.7,672.1,419.7,681.1,419.7z"
		/>
	<path class="st0" d="M1053.9,191.3c0,8.1,0,15.6,0,23.5c-3.9,0-7.7,0-11.7,0c0,70.4,0,140.5,0,210.8c-103.8,0-207.3,0-311.1,0
		c0-70.1,0-140.2,0-210.7c-4.1,0-8,0-12,0c0-8,0-15.6,0-23.5c46.5,0,92.8,0,139.9,0c-5.9-7.3-11.4-14.1-17-21.1
		c4.4-8,8.7-16,13.1-24c6.8-12.3,13.6-24.6,20.3-36.9c0.9-1.7,1.8-2.5,3.8-2.2c1.6,0.2,3.3,0,5.1,0c0-6.2,0-12.2,0-18.5
		c-24.3,0-48.5,0-73.1,0c5.8-29.4,11.6-58.5,17.4-87.8c42,0,83.9,0,126.1,0c4.5,22.5,9,45,13.5,67.9c-2.3,0-4.4,0.1-6.4-0.1
		c-0.5,0-1.2-1-1.4-1.7c-2.6-12.6-5.1-25.3-7.6-37.9c-1.4-6.9-2.8-13.8-4.2-20.9c-38,0-76,0-114.3,0c-4.8,24.2-9.6,48.5-14.5,73
		c47.8,0,95.5,0,143.4,0c-0.8-4-1.6-8-2.4-12.1c2.5,0,4.8,0,7.4,0c1.2,6.3,2.5,12.7,3.8,19.4c-24.5,0-48.8,0-73.2,0
		c0,6.3,0,12.2,0,18.6c2,0,3.9-0.2,5.9,0.1c1,0.1,2.2,0.7,2.7,1.5c11,19.8,21.9,39.6,32.8,59.3c0.9,1.6,0.9,2.6-0.4,4.1
		c-5.1,6.1-10.1,12.4-15.4,19C967.9,191.3,1010.8,191.3,1053.9,191.3z M1034.8,215.3c-99,0-197.7,0-296.5,0c0,67.8,0,135.5,0,203.3
		c98.9,0,197.7,0,296.5,0C1034.8,350.8,1034.8,283.2,1034.8,215.3z M850.7,169.6c5.6,7,11.2,13.9,16.9,20.7c0.5,0.6,1.7,1,2.6,1.1
		c14.4,0.1,28.8,0.1,43.2,0c1,0,2.3-0.6,2.9-1.3c5.2-6.2,10.2-12.5,15.3-18.7c1.1-1.3,1.1-2.2,0.3-3.7c-9.4-17-18.8-34-28.1-51
		c-0.8-1.4-1.6-2-3.2-2c-5.8,0.1-11.6,0.1-17.5,0c-1.4,0-2.2,0.4-2.9,1.7c-4.7,8.7-9.5,17.3-14.3,26
		C860.7,151.3,855.7,160.4,850.7,169.6z M1046.7,198.9c-106.9,0-213.6,0-320.4,0c0,3,0,5.9,0,8.7c106.9,0,213.6,0,320.4,0
		C1046.7,204.6,1046.7,201.8,1046.7,198.9z"/>
	<path class="st0" d="M1020.9,309.5c0,27.3,0,54.4,0,81.6c-89.6,0-179.2,0-268.8,0c0-27.2,0-54.3,0-81.6
		C841.7,309.5,931.2,309.5,1020.9,309.5z M759.2,383.6c84.9,0,169.6,0,254.4,0c0-22.4,0-44.6,0-66.7c-84.9,0-169.6,0-254.4,0
		C759.2,339.3,759.2,361.4,759.2,383.6z"/>
	<path class="st0" d="M752.1,221.6c89.6,0,179.1,0,268.8,0c0,27.1,0,54.2,0,81.4c-89.5,0-179,0-268.8,0
		C752.1,276,752.1,248.9,752.1,221.6z M1013.7,228.9c-85,0-169.7,0-254.5,0c0,22.3,0,44.5,0,66.8c84.9,0,169.6,0,254.5,0
		C1013.7,273.4,1013.7,251.3,1013.7,228.9z"/>
	<path class="st0" d="M886.5,356.8c-7.6,0-15.2,0.3-22.7-0.1c-5.2-0.3-9.6-2.7-12.2-7.6c-0.8-1.5-1-3.3-1.2-5
		c-0.1-1.8,1.1-2.9,2.8-3.3c1.9-0.4,3.7,0.3,4,2.1c1,6.1,5.6,6.7,10.3,6.8c8.3,0.2,16.7,0.1,25,0.1c4.2,0,8.5,0.1,12.7-0.1
		c2.1-0.1,4.3-0.6,6.3-1.3c2-0.7,3.5-2.2,3.8-4.5c0.3-2.3,1.8-3.3,4-3.1c2,0.1,3.2,1.7,3.1,4c-0.1,3.5-1.9,6.1-4.5,8.3
		c-3.7,3.1-8.2,4-12.8,4c-6.2,0-12.5,0-18.7,0C886.5,357,886.5,356.9,886.5,356.8z"/>
	<path class="st0" d="M886.5,273.3c-6.7,0-13.5,0.2-20.2-0.1c-6-0.2-11.4-2.1-14.5-7.7c-0.9-1.5-1.2-3.4-1.3-5.2
		c-0.1-2,1.3-3.2,3.2-3.5c1.9-0.2,3.2,0.8,3.8,2.6c1.5,4.4,3.6,6.3,8.3,6.3c13.8,0.1,27.6,0.1,41.5,0c4.7,0,6.7-1.8,8.4-6.5
		c0.6-1.8,2.1-2.7,3.9-2.4c1.8,0.3,3,1.4,3.1,3.4c0.2,4.4-2,7.8-5.5,9.7c-3.1,1.7-6.8,2.9-10.3,3.2
		C900,273.6,893.3,273.3,886.5,273.3z"/>
</g>
</svg>
