<?xml version="1.0" encoding="utf-8"?>
<!-- Generator: Adobe Illustrator 21.0.2, SVG Export Plug-In . SVG Version: 6.00 Build 0)  -->
<svg version="1.1" id="Layer_1" xmlns="http://www.w3.org/2000/svg" xmlns:xlink="http://www.w3.org/1999/xlink" x="0px" y="0px"
	 viewBox="0 0 81 38" style="enable-background:new 0 0 81 38;" xml:space="preserve">
<style type="text/css">
	.st0{fill:#181818;}
</style>
<title>Page 1</title>
<desc>Created with Sketch.</desc>
<g id="Dropdown-Menus">
	<g id="Dining_Dropdown" transform="translate(-110.000000, -199.000000)">
		<g id="Page-1" transform="translate(110.000000, 200.000000)">
			<path class="st0" d="M15.5,6.6l-15.1-2C0.2,4.5,0,4.3,0,4.1V0.5C0,0.2,0.2,0,0.5,0h80C80.8,0,81,0.2,81,0.5v3.6
				c0,0.3-0.2,0.5-0.4,0.5l-15,2L15.5,6.6z M1,3.6l14.6,1.9l49.9,0L80,3.6V1H1V3.6z M80.5,4.1L80.5,4.1L80.5,4.1z"/>
			<path class="st0" d="M75.5,36.6h-2c-0.2,0-0.4-0.1-0.5-0.3l-13-30c-0.1-0.2-0.1-0.3,0-0.5s0.2-0.2,0.4-0.2h5
				c0.2,0,0.4,0.1,0.5,0.3l10,30c0.1,0.2,0,0.3-0.1,0.5C75.8,36.5,75.7,36.6,75.5,36.6z M73.8,35.6h1l-9.7-29h-3.9L73.8,35.6z"/>
			<path class="st0" d="M7.5,36.6h-2c-0.2,0-0.3-0.1-0.4-0.2C5,36.2,5,36,5,35.9l10-30c0.1-0.2,0.3-0.3,0.5-0.3h5
				c0.2,0,0.3,0.1,0.4,0.2s0.1,0.3,0,0.5l-13,30C7.9,36.4,7.7,36.6,7.5,36.6z M6.2,35.6h1l12.6-29h-3.9L6.2,35.6z"/>
		</g>
	</g>
</g>
</svg>
