<?xml version="1.0" encoding="utf-8"?>
<!-- Generator: Adobe Illustrator 21.0.2, SVG Export Plug-In . SVG Version: 6.00 Build 0)  -->
<svg version="1.1" id="Layer_1" xmlns="http://www.w3.org/2000/svg" xmlns:xlink="http://www.w3.org/1999/xlink" x="0px" y="0px"
	 viewBox="0 0 48.7 66.7" style="enable-background:new 0 0 48.7 66.7;" xml:space="preserve">
<style type="text/css">
	.st0{fill:#181818;}
</style>
<g>
	<path class="st0" d="M25.9,35.8v-7.7h22.8L43.5,0H5.2L0,28.2h22.8v7.7H20L9.6,56.3l7.8,10.4h13.8L39,56.3L28.7,35.8H25.9z M6,1.1
		h36.7l4.1,22.1H1.9L6,1.1z M1.2,27.2l0.6-3H47l0.6,3H25.9h-3.2H1.2z M24.9,28.2v7.7h-1.2v-7.7H24.9z M20.6,36.8h2.1h3.2H28
		l9.6,18.8H11L20.6,36.8z M30.7,65.6H17.9l-6.8-9h26.3L30.7,65.6z"/>
</g>
</svg>
