<?xml version="1.0" encoding="utf-8"?>
<!-- Generator: Adobe Illustrator 21.0.2, SVG Export Plug-In . SVG Version: 6.00 Build 0)  -->
<svg version="1.1" id="Layer_1" xmlns="http://www.w3.org/2000/svg" xmlns:xlink="http://www.w3.org/1999/xlink" x="0px" y="0px"
	 viewBox="0 0 110 46" style="enable-background:new 0 0 110 46;" xml:space="preserve">
<style type="text/css">
	.st0{fill:#181818;}
</style>
<title>Page 1</title>
<desc>Created with Sketch.</desc>
<g id="Accents_Dropdown" transform="translate(-290.000000, -191.000000)">
	<g id="Page-1" transform="translate(290.000000, 191.000000)">
		<path class="st0" d="M108.9,41.5H0.5C0.2,41.5,0,41.3,0,41V0.5C0,0.2,0.2,0,0.5,0h108.4c0.3,0,0.5,0.2,0.5,0.5V41
			C109.4,41.3,109.2,41.5,108.9,41.5z M1,40.5h107.4V1H1V40.5z"/>
		<path class="st0" d="M36,38.2H4c-0.3,0-0.5-0.2-0.5-0.5V3.7c0-0.3,0.2-0.5,0.5-0.5H36c0.3,0,0.5,0.2,0.5,0.5v33.9
			C36.5,37.9,36.3,38.2,36,38.2z M4.5,37.2h31.1V4.2H4.5V37.2z"/>
		<path class="st0" d="M70.8,38.2H38.7c-0.3,0-0.5-0.2-0.5-0.5V3.7c0-0.3,0.2-0.5,0.5-0.5h32.1c0.3,0,0.5,0.2,0.5,0.5v33.9
			C71.3,37.9,71,38.2,70.8,38.2z M39.2,37.2h31.1V4.2H39.2V37.2z"/>
		<path class="st0" d="M4,41.5H0.6c-0.3,0-0.5-0.2-0.5-0.5V0.5C0.1,0.2,0.3,0,0.6,0H4c0.3,0,0.5,0.2,0.5,0.5V41
			C4.5,41.3,4.2,41.5,4,41.5z M1.1,40.5h2.4V1H1.1V40.5z"/>
		<path class="st0" d="M105.7,38.2H73.6c-0.3,0-0.5-0.2-0.5-0.5V3.7c0-0.3,0.2-0.5,0.5-0.5h32.1c0.3,0,0.5,0.2,0.5,0.5v33.9
			C106.2,37.9,106,38.2,105.7,38.2z M74.1,37.2h31.1V4.2H74.1V37.2z"/>
		<path class="st0" d="M109,41.5h-3.4c-0.3,0-0.5-0.2-0.5-0.5V0.5c0-0.3,0.2-0.5,0.5-0.5h3.4c0.3,0,0.5,0.2,0.5,0.5V41
			C109.5,41.3,109.3,41.5,109,41.5z M106.2,40.5h2.4V1h-2.4V40.5z"/>
		<path id="Fill-10" class="st0" d="M5.3,45.2h11.1v-4.8H5.3V45.2z M6.3,44.2h9.1v-2.7H6.3V44.2z"/>
		<path id="Fill-11" class="st0" d="M92.1,45.2h11.1v-4.8H92.1V45.2z M93.1,44.2h9.1v-2.7h-9.1V44.2z"/>
		<path class="st0" d="M70.8,23H38.7c-0.3,0-0.5-0.2-0.5-0.5s0.2-0.5,0.5-0.5h32.1c0.3,0,0.5,0.2,0.5,0.5S71,23,70.8,23z"/>
		<path class="st0" d="M70.8,20.7H38.7c-0.3,0-0.5-0.2-0.5-0.5s0.2-0.5,0.5-0.5h32.1c0.3,0,0.5,0.2,0.5,0.5S71,20.7,70.8,20.7z"/>
		<g id="Group-18" transform="translate(30.000000, 19.245700)">
			<path id="Fill-14" class="st0" d="M3.5,2.1c0,0.8-0.6,1.4-1.4,1.4S0.7,2.9,0.7,2.1s0.6-1.4,1.4-1.4S3.5,1.3,3.5,2.1"/>
			<path id="Fill-16" class="st0" d="M48.9,2.1c0,0.8-0.6,1.4-1.4,1.4c-0.8,0-1.4-0.6-1.4-1.4s0.6-1.4,1.4-1.4
				C48.3,0.7,48.9,1.3,48.9,2.1"/>
		</g>
	</g>
</g>
</svg>
