<?xml version="1.0" encoding="utf-8"?>
<!-- Generator: Adobe Illustrator 21.0.2, SVG Export Plug-In . SVG Version: 6.00 Build 0)  -->
<svg version="1.1" id="Layer_1" xmlns="http://www.w3.org/2000/svg" xmlns:xlink="http://www.w3.org/1999/xlink" x="0px" y="0px"
	 viewBox="0 0 45 67" style="enable-background:new 0 0 45 67;" xml:space="preserve">
<style type="text/css">
	.st0{fill:#181818;}
</style>
<title>Page 1</title>
<desc>Created with Sketch.</desc>
<g id="Dropdown-Menus">
	<g id="Inspiration_Dropdown" transform="translate(-110.000000, -170.000000)">
		<g id="Page-1" transform="translate(110.000000, 170.000000)">
			<path class="st0" d="M34.6,51.3h-1v-0.5c0-5.1,1.8-12.6,5.2-16.9c2.8-3.5,4.3-7.8,4.3-12.5c0-5.4-2.4-10.8-6.5-14.6
				c-4.3-4-9.9-6-15.8-5.7C10.3,1.8,1.7,10.4,1.2,20.8C1,25.8,2.5,30.5,5.4,34.1c3.4,4.2,5.2,11.6,5.2,16.8v0.5h-1v-0.5
				c0-4.9-1.7-12.2-5-16.2C1.6,30.9,0,26,0.2,20.8C0.7,9.9,9.7,0.8,20.7,0.2c6.2-0.3,12,1.8,16.5,5.9c4.3,4,6.8,9.6,6.8,15.3
				c0,4.9-1.6,9.4-4.5,13.1c-3.2,4.1-5,11.4-5,16.3V51.3z"/>
			<path class="st0" d="M7.7,19.6l-1,0c0.3-6.8,6-12.5,12.9-12.9l0.1,1C13.3,8,8,13.3,7.7,19.6z"/>
			<rect x="9.5" y="50.8" class="st0" width="25.2" height="1"/>
			<rect x="11" y="55.7" class="st0" width="22.1" height="1"/>
			<polygon class="st0" points="30.7,66.4 13.5,66.4 13.5,61.2 14.5,61.2 14.5,65.4 29.7,65.4 29.7,61 30.7,61 			"/>
			<polygon class="st0" points="33.1,61.5 10.5,61.5 10.7,51.3 11.7,51.3 11.5,60.5 33.1,60.5 			"/>
			<polygon class="st0" points="33.5,61.5 11.2,61.5 11.2,60.5 32.5,60.5 32.3,51.3 33.3,51.3 			"/>
		</g>
	</g>
</g>
</svg>
