<?xml version="1.0" encoding="utf-8"?>
<!-- Generator: Adobe Illustrator 21.0.2, SVG Export Plug-In . SVG Version: 6.00 Build 0)  -->
<svg version="1.1" id="Layer_1" xmlns="http://www.w3.org/2000/svg" xmlns:xlink="http://www.w3.org/1999/xlink" x="0px" y="0px"
	 viewBox="0 0 121.2 84.9" style="enable-background:new 0 0 121.2 84.9;" xml:space="preserve">
<style type="text/css">
	.st0{fill:#181818;}
</style>
<title>Page 1</title>
<desc>Created with Sketch.</desc>
<g>
	<path class="st0" d="M87.5,52.8v-5.2H62.9V20.7h58.3L60.6,0L0,20.7h58.3v26.9H33.8v5.2h24.5v32h4.6v-32H87.5z M40.9,19.7L60.6,1.2
		l19.7,18.5H40.9z M81.8,19.7L62.7,1.8l52.5,17.9H81.8z M58.6,1.8L39.5,19.7H6L58.6,1.8z M59.3,20.7h2.6v26.9h-2.6V20.7z M34.8,51.8
		v-3.2h23.5h4.6h23.5v3.2H62.9h-4.6H34.8z M61.9,83.8h-2.6v-31h2.6V83.8z"/>
	<path class="st0" d="M42.7,67v-5.1H20.7l-5.6-24.4l-5,1l6.3,27.9l0.2,0.7h1.2l-6.1,17.9h3.9L23,67h13.6l3,17.9h3.8L41.5,67H42.7z
		 M14.9,83.9h-1.8L18.9,67h3L14.9,83.9z M23.4,66h-5.2h-0.9l-6-26.8l3-0.6l5.6,24.3h21.7V66h-0.2h-5.1H23.4z M42.2,83.9h-1.9
		L37.5,67h3L42.2,83.9z"/>
	<path class="st0" d="M111.2,38.4l-5-1l-5.6,24.4H78.6V67h1.1L78,84.9h3.8l3-17.9h13.6l7.3,17.9h3.9L103.4,67h1.3L111.2,38.4z
		 M80.9,83.9h-1.9L80.7,67h3L80.9,83.9z M108.2,83.9h-1.8L99.4,67h3L108.2,83.9z M103.1,66h-5.2h-13h-5.1h-0.2v-3.1h21.7l5.6-24.3
		l3,0.6l-6,26.8H103.1z"/>
</g>
</svg>
