<?xml version="1.0" encoding="utf-8"?>
<!-- Generator: Adobe Illustrator 21.0.2, SVG Export Plug-In . SVG Version: 6.00 Build 0)  -->
<svg version="1.1" id="Layer_1" xmlns="http://www.w3.org/2000/svg" xmlns:xlink="http://www.w3.org/1999/xlink" x="0px" y="0px"
	 viewBox="0 0 99 62" style="enable-background:new 0 0 99 62;" xml:space="preserve">
<style type="text/css">
	.st0{fill:#FEFEFE;}
	.st1{fill:#181818;}
</style>
<title>Page 1</title>
<desc>Created with Sketch.</desc>
<g id="Bedroom_Dropdown" transform="translate(-110.000000, -175.000000)">
	<g id="Page-1" transform="translate(110.000000, 175.000000)">
		<polygon id="Fill-1" class="st0" points="11.2,28.1 87.8,28.1 87.8,1.1 11.2,1.1 		"/>
		<g id="Group-16" transform="translate(0.000000, 0.186405)">
			<path class="st1" d="M88.3,28.4H10.7v-28h77.5V28.4z M11.7,27.4h75.5v-26H11.7V27.4z"/>
			<path id="Fill-4" class="st0" d="M43.7,29.9H22.8c-1.7,0-3.1-1.1-3.1-2.4v-9.2c0-1.3,1.4-2.4,3.1-2.4h20.9c1.7,0,3.1,1.1,3.1,2.4
				v9.2C46.8,28.8,45.4,29.9,43.7,29.9"/>
			<path class="st1" d="M43.7,30.4H22.8c-2,0-3.6-1.3-3.6-2.9v-9.2c0-1.6,1.6-2.9,3.6-2.9h20.9c2,0,3.6,1.3,3.6,2.9v9.2
				C47.3,29.1,45.7,30.4,43.7,30.4z M22.8,16.3c-1.4,0-2.6,0.9-2.6,1.9v9.2c0,1.1,1.2,1.9,2.6,1.9h20.9c1.4,0,2.6-0.9,2.6-1.9v-9.2
				c0-1.1-1.2-1.9-2.6-1.9H22.8z"/>
			<path id="Fill-6" class="st0" d="M76.2,29.9H55.3c-1.7,0-3.1-1.1-3.1-2.4v-9.2c0-1.3,1.4-2.4,3.1-2.4h20.9c1.7,0,3.1,1.1,3.1,2.4
				v9.2C79.3,28.8,77.9,29.9,76.2,29.9"/>
			<path class="st1" d="M76.2,30.4H55.3c-2,0-3.6-1.3-3.6-2.9v-9.2c0-1.6,1.6-2.9,3.6-2.9h20.9c2,0,3.6,1.3,3.6,2.9v9.2
				C79.8,29.1,78.2,30.4,76.2,30.4z M55.3,16.3c-1.4,0-2.6,0.9-2.6,1.9v9.2c0,1.1,1.2,1.9,2.6,1.9h20.9c1.4,0,2.6-0.9,2.6-1.9v-9.2
				c0-1.1-1.2-1.9-2.6-1.9H55.3z"/>
			<path id="Fill-8" class="st0" d="M91.2,40.1H7.8c-1.7,0-3.1-1.1-3.1-2.4v-9.2c0-1.3,1.4-2.4,3.1-2.4h83.4c1.7,0,3.1,1.1,3.1,2.4
				v9.2C94.3,39,92.9,40.1,91.2,40.1"/>
			<path class="st1" d="M91.2,40.6H7.8c-2,0-3.6-1.3-3.6-2.9v-9.2c0-1.6,1.6-2.9,3.6-2.9h83.4c2,0,3.6,1.3,3.6,2.9v9.2
				C94.8,39.3,93.2,40.6,91.2,40.6z M7.8,26.5c-1.4,0-2.6,0.9-2.6,1.9v9.2c0,1.1,1.2,1.9,2.6,1.9h83.4c1.4,0,2.6-0.9,2.6-1.9v-9.2
				c0-1.1-1.2-1.9-2.6-1.9H7.8z"/>
			<polygon id="Fill-10" class="st0" points="0.9,60.9 5.8,60.9 5.8,47.4 0.9,47.4 			"/>
			<path class="st1" d="M5.8,61.4H0.9c-0.3,0-0.5-0.2-0.5-0.5V47.4c0-0.3,0.2-0.5,0.5-0.5h4.9c0.3,0,0.5,0.2,0.5,0.5v13.4
				C6.3,61.1,6.1,61.4,5.8,61.4z M1.4,60.4h3.9V47.9H1.4V60.4z"/>
			<polygon id="Fill-12" class="st0" points="93.2,60.9 98.1,60.9 98.1,47.4 93.2,47.4 			"/>
			<path class="st1" d="M98.1,61.4h-4.9c-0.3,0-0.5-0.2-0.5-0.5V47.4c0-0.3,0.2-0.5,0.5-0.5h4.9c0.3,0,0.5,0.2,0.5,0.5v13.4
				C98.6,61.1,98.3,61.4,98.1,61.4z M93.7,60.4h3.9V47.9h-3.9V60.4z"/>
			<polygon id="Fill-14" class="st0" points="0.9,50.3 98.1,50.3 98.1,36.8 0.9,36.8 			"/>
			<path class="st1" d="M98.6,50.8H0.4V36.3h98.2V50.8z M1.4,49.8h96.2V37.3H1.4V49.8z"/>
		</g>
	</g>
</g>
</svg>
