<?xml version="1.0" encoding="utf-8"?>
<!-- Generator: Adobe Illustrator 21.0.2, SVG Export Plug-In . SVG Version: 6.00 Build 0)  -->
<svg version="1.1" id="Layer_1" xmlns="http://www.w3.org/2000/svg" xmlns:xlink="http://www.w3.org/1999/xlink" x="0px" y="0px"
	 viewBox="0 0 96 45" style="enable-background:new 0 0 96 45;" xml:space="preserve">
<style type="text/css">
	.st0{fill:#181818;}
</style>
<title>Page 1</title>
<desc>Created with Sketch.</desc>
<g id="Dropdown-Menus">
	<g id="Accents_Dropdown" transform="translate(-110.000000, -192.000000)">
		<g id="Page-1" transform="translate(110.000000, 192.000000)">
			<path class="st0" d="M4.6,44.1c-1,0-2-0.4-2.8-1.1c-0.9-0.8-1.5-1.9-1.6-3c0.1-1.5,1-2.8,2.2-3.6C2.2,36.4,2,36.2,1.8,36
				c-0.9-0.8-1.5-1.9-1.6-3c0.2-2.5,2.4-4.4,4.8-4.1h6.5c-0.6-0.6-1-1.4-1.1-2.2l0-0.1l0-0.1c0.1-1.2,0.8-2.2,1.7-2.7
				c-1-0.6-1.7-1.6-1.8-2.8l0-0.1l0-0.1c0.1-1,0.6-1.8,1.3-2.4c0.8-0.6,1.7-0.9,2.6-0.8l20.9,0c-9.9-1.4-17.6-4.3-17.6-8.2
				c0-5.2,14.2-9.2,32.3-9.2c15.9,0,32.3,3.4,32.3,9.2c0,3.9-7.7,6.8-17.6,8.2l17.1,0c1.1-0.1,2.3,0.2,3.2,0.9
				c0.9,0.7,1.5,1.8,1.6,2.9l0,5.1c-0.1,0.9-0.5,1.7-1.1,2.3h3.9c2.8-0.2,5.4,1.9,5.8,4.7l0,6.4c-0.2,2.5-2.5,4.3-4.8,4.1L5,44.1
				C4.9,44.1,4.8,44.1,4.6,44.1z M3.8,37c-1.4,0.4-2.4,1.6-2.6,3c0.1,0.8,0.5,1.6,1.3,2.2c0.7,0.6,1.6,0.9,2.5,0.8l85.4,0
				c1.9,0.2,3.6-1.3,3.8-3.1l0-6.3c-0.4-2.3-2.5-4-4.8-3.8l-6,0c-0.3,0-0.5,0-0.8,0l-68.3,0c-0.3,0-0.5,0-0.8,0H5
				c-1.9-0.2-3.6,1.3-3.8,3.1c0.1,0.8,0.5,1.6,1.3,2.2c0.4,0.3,0.8,0.6,1.3,0.7c0.4-0.1,0.8-0.1,1.3-0.1l81.1,0.2l0,1H5
				C4.6,37.1,4.2,37.1,3.8,37z M11.5,26.6c0.2,1.2,1.1,2.2,2.3,2.3l68.9,0h0h0.6c1.2-0.1,2.2-1.1,2.3-2.4l0-5
				c-0.1-0.8-0.5-1.6-1.2-2.2c-0.7-0.6-1.6-0.8-2.5-0.7l-31.3,0c-0.3,0-0.7,0-1,0l-35.2,0c-0.7-0.1-1.4,0.1-1.9,0.6
				c-0.5,0.4-0.9,1-1,1.7c0.2,1.2,1.1,2.1,2.2,2.4c0.3,0,0.6,0,0.9,0l65.3,0v1.1H14.3c-0.2,0-0.5,0-0.7-0.1
				C12.5,24.6,11.7,25.4,11.5,26.6z M50,1.2c-18.7,0-31.3,4.2-31.3,8.2s12.6,8.2,31.3,8.2s31.3-4.2,31.3-8.2S68.7,1.2,50,1.2z"/>
		</g>
	</g>
</g>
</svg>
