<?xml version="1.0" encoding="utf-8"?>
<!-- Generator: Adobe Illustrator 21.0.2, SVG Export Plug-In . SVG Version: 6.00 Build 0)  -->
<svg version="1.1" id="Layer_1" xmlns="http://www.w3.org/2000/svg" xmlns:xlink="http://www.w3.org/1999/xlink" x="0px" y="0px"
	 viewBox="0 0 72 59" style="enable-background:new 0 0 72 59;" xml:space="preserve">
<style type="text/css">
	.st0{fill:#FFFFFF;}
	.st1{fill:#181818;}
</style>
<title>Page 1</title>
<desc>Created with Sketch.</desc>
<g id="Dropdown-Menus">
	<g id="Matresses_Dropdown" transform="translate(-644.000000, -177.000000)">
		<g id="Page-1" transform="translate(644.000000, 178.000000)">
			<polygon id="Fill-1" class="st0" points="35.6,21.9 35.6,56.9 70.7,46.4 70.7,11.5 			"/>
			<path class="st1" d="M35.1,57.5v-36l36-10.7v36L35.1,57.5z M36.1,22.3v33.9l34-10.1V12.1L36.1,22.3z"/>
			<polygon id="Fill-4" class="st0" points="0.6,46.4 35.6,56.9 35.6,21.9 0.6,11.5 			"/>
			<path class="st1" d="M36.1,57.5l-36-10.7v-36l36,10.7V57.5z M1.1,46.1l34,10.1V22.3l-34-10.1V46.1z"/>
			<polygon class="st1" points="17.8,27.3 16.8,27.3 16.8,16 52.6,5.2 52.9,6.2 17.8,16.7 			"/>
			<polygon class="st1" points="0.4,11.7 0.1,10.7 36.1,0 36.2,0 71,10.7 70.7,11.7 36.1,1 			"/>
		</g>
	</g>
</g>
</svg>
