<?xml version="1.0" encoding="utf-8"?>
<!-- Generator: Adobe Illustrator 21.0.2, SVG Export Plug-In . SVG Version: 6.00 Build 0)  -->
<svg version="1.1" id="Layer_1" xmlns="http://www.w3.org/2000/svg" xmlns:xlink="http://www.w3.org/1999/xlink" x="0px" y="0px"
	 viewBox="0 0 52 52" style="enable-background:new 0 0 52 52;" xml:space="preserve">
<style type="text/css">
	.st0{fill:#181818;}
</style>
<title>Page 1</title>
<desc>Created with Sketch.</desc>
<g id="Dropdown-Menus">
	<g id="Matresses_Dropdown" transform="translate(-465.000000, -183.000000)">
		<g id="Page-1" transform="translate(465.000000, 183.000000)">
			<path class="st0" d="M28.7,52L0.1,23.3L0.1,0.1l23.2,0L52,28.7L28.7,52z M1.1,22.9l27.6,27.6l21.9-21.9L22.9,1.1l-21.8,0
				L1.1,22.9z"/>
			<path class="st0" d="M8.7,12c-0.6,0-1.2-0.2-1.7-0.5c-1-0.6-1.6-1.7-1.6-2.9c0-0.9,0.4-1.8,1-2.4c1.3-1.3,3.5-1.3,4.8,0
				c0.7,0.7,1,1.6,1,2.6c-0.1,1-0.5,1.9-1.3,2.5l0,0C10.3,11.8,9.5,12,8.7,12z M8.7,6.2C8.1,6.2,7.5,6.5,7,6.9
				C6.6,7.4,6.3,8,6.3,8.6c0,0.8,0.4,1.6,1.2,2.1c0.8,0.5,2,0.4,2.7-0.2l0,0c0.5-0.4,0.9-1.1,0.9-1.8c0-0.7-0.2-1.4-0.7-1.8
				C10,6.5,9.4,6.2,8.7,6.2z"/>
			
				<rect x="20.2" y="35.9" transform="matrix(0.7071 -0.7071 0.7071 0.7071 -15.175 36.2339)" class="st0" width="31.9" height="1"/>
		</g>
	</g>
</g>
</svg>
