<?xml version="1.0" encoding="utf-8"?>
<!-- Generator: Adobe Illustrator 21.0.2, SVG Export Plug-In . SVG Version: 6.00 Build 0)  -->
<svg version="1.1" id="Layer_1" xmlns="http://www.w3.org/2000/svg" xmlns:xlink="http://www.w3.org/1999/xlink" x="0px" y="0px"
	 viewBox="0 0 96 45" style="enable-background:new 0 0 96 45;" xml:space="preserve">
<style type="text/css">
	.st0{fill:#181818;}
</style>
<title>Page 1</title>
<desc>Created with Sketch.</desc>
<g id="Dropdown-Menus">
	<g id="Matresses_Dropdown" transform="translate(-289.000000, -192.000000)">
		<g id="Page-1" transform="translate(289.000000, 192.000000)">
			<path class="st0" d="M4.6,44.2c-2.2,0-4.1-1.8-4.4-4.1c0.1-1.5,1-2.8,2.2-3.6c-1.2-0.7-2.1-2-2.2-3.5c0.2-2.5,2.5-4.4,4.8-4.2
				l6.5,0c-0.6-0.6-1-1.3-1.1-2.2l0-0.1l0-0.1c0.2-1.2,0.9-2.2,1.9-2.8c-1-0.6-1.7-1.6-1.9-2.8l0-0.1l0-0.1c0.3-2,2-3.4,4-3.2l21,0
				c-9.9-1.4-17.6-4.3-17.6-8.2c0-5.3,13.9-9.2,32.3-9.2c15.9,0,32.3,3.5,32.3,9.2c0,4-7.7,6.8-17.6,8.2l17.2,0
				c2.4-0.2,4.5,1.5,4.8,3.9l0,5.1c-0.1,0.9-0.5,1.7-1.1,2.3h3.8c2.8-0.2,5.4,1.8,5.8,4.7l0,6.5c-0.2,2.5-2.4,4.3-4.8,4.1L5,44.2
				C4.8,44.2,4.7,44.2,4.6,44.2z M3.7,37.1c-1.3,0.4-2.3,1.6-2.5,3c0.2,1.8,1.9,3.2,3.7,3.1l85.5,0c1.9,0.2,3.6-1.3,3.8-3.2l0-6.3
				c-0.4-2.2-2.5-3.9-4.8-3.8h-5.9c-0.3,0-0.5,0-0.8,0l-68.3,0c-0.3,0-0.5,0-0.8,0H5c-1.9-0.2-3.6,1.3-3.8,3.2
				c0.1,1.4,1.2,2.5,2.5,2.9c0.4-0.1,0.9-0.1,1.3-0.1l81.1,0.2l0,1H5C4.5,37.2,4.1,37.2,3.7,37.1z M11.4,26.6
				c0.2,1.2,1.1,2.1,2.2,2.3l69.1,0c0,0,0,0,0,0h0.6c1.2-0.1,2.1-1.1,2.3-2.3l0-5c-0.2-1.8-1.9-3.1-3.7-2.9l-31.4,0
				c-0.4,0-0.7,0-1.1,0l-35.2,0c-1.4-0.2-2.7,0.8-2.9,2.3c0.2,1.3,1.3,2.3,2.6,2.5c0.1,0,0.3,0,0.4,0h64.9v1h-65c-0.1,0-0.3,0-0.4,0
				C12.7,24.4,11.6,25.4,11.4,26.6z M50,1.2c-15.1,0-31.3,3.3-31.3,8.2c0,4,12.6,8.2,31.3,8.2c18.7,0,31.3-4.3,31.3-8.2
				S68.7,1.2,50,1.2z"/>
		</g>
	</g>
</g>
</svg>
