<?xml version="1.0" encoding="utf-8"?>
<!-- Generator: Adobe Illustrator 21.0.0, SVG Export Plug-In . SVG Version: 6.00 Build 0)  -->
<svg version="1.1" id="Mix-Traditional-Logo" xmlns="http://www.w3.org/2000/svg" xmlns:xlink="http://www.w3.org/1999/xlink"
	 x="0px" y="0px" viewBox="0 0 792 612" style="enable-background:new 0 0 792 612;" xml:space="preserve">
<g>
	<path d="M648.3,558h-504V54h504V558z M165,537.2h462.5V74.8H165V537.2z"/>
	<g>
		<path d="M243.6,423.9c-7.6-6-11.4-15.2-11.4-25.6c0-10.4,3.8-19.6,11.4-25.6l1.6,1.8c-4.7,5.7-7.4,13.1-7.4,23.8
			c0,10.7,2.7,18.1,7.4,23.8L243.6,423.9z"/>
		<path d="M258.9,415.6c-5.9,0-10.3-3.8-10.3-9.3v-28.1h6.9v28.1c0,2.1,1.2,3.3,3.4,3.3c2.2,0,3.5-1.2,3.5-3.3v-28.1h6.6v28.1
			C269,411.8,264.9,415.6,258.9,415.6z"/>
		<path d="M290.9,414.8l-7.1-15.6l-2.6-5.8v21.4H275v-36.5h5.9l6.7,15.9l2.4,5.8v-21.7h6.1v36.5H290.9z"/>
		<path d="M301.4,423.9l-1.7-1.9c4.7-5.7,7.5-13.1,7.5-23.8c0-10.7-2.8-18.1-7.5-23.8l1.7-1.8c7.5,6,11.4,15.2,11.4,25.6
			C312.8,408.7,308.9,417.9,301.4,423.9z"/>
		<path d="M332.7,384.3v30.5h-6.9v-30.5h-6.7v-6h20.3v6H332.7z"/>
		<path d="M360.6,415c-2.7,0-3.7-2.2-3.7-5.4v-6.9c0-1.7-0.9-3.1-2.8-3.1h-3.6v15.1h-6.8v-36.5H355c5,0,8.3,2.9,8.3,8v5.2
			c0,2.7-1.3,4.8-4.1,5.7c2.9,0.8,4.2,3.2,4.2,5.5v6.7c0,1.7,0.5,2.9,1.3,3.7v2H360.6z M356.7,386.5c0-1.6-0.7-2.6-2.4-2.6h-3.7
			v10.8h3.5c1.8,0,2.7-0.9,2.7-2.9V386.5z"/>
		<path d="M382.3,414.8l-1.2-7.2h-6.5l-1.3,7.2H367l7.4-36.5h7.6l7.3,36.5H382.3z M378.1,388.1l-2.5,14.1h4.7L378.1,388.1z"/>
		<path d="M403.7,414.8h-10.5v-36.5h10.5c6.4,0,10,4.1,10,9.9v17.1C413.7,411.1,410.2,414.8,403.7,414.8z M406.9,388.2
			c0-2.6-1.1-4.1-3.6-4.1H400v24.8h3.2c2.5,0,3.6-1.4,3.6-4V388.2z"/>
		<path d="M419.4,414.8v-36.5h6.8v36.5H419.4z"/>
		<path d="M444.2,384.3v30.5h-6.9v-30.5h-6.7v-6h20.3v6H444.2z"/>
		<path d="M455.1,414.8v-36.5h6.8v36.5H455.1z"/>
		<path d="M478.1,415.6c-6.4,0-10.4-4.2-10.4-10v-18.2c0-5.8,4-9.9,10.4-9.9c6.4,0,10.4,4.2,10.4,9.9v18.2
			C488.4,411.4,484.5,415.6,478.1,415.6z M481.6,387c0-2.1-1.3-3.6-3.5-3.6c-2.2,0-3.5,1.4-3.5,3.6v19.1c0,2.1,1.3,3.6,3.5,3.6
			c2.2,0,3.5-1.4,3.5-3.6V387z"/>
		<path d="M510,414.8l-7.1-15.6l-2.6-5.8v21.4h-6.3v-36.5h5.9l6.7,15.9l2.4,5.8v-21.7h6.1v36.5H510z"/>
		<path d="M534.5,414.8l-1.2-7.2h-6.5l-1.3,7.2h-6.4l7.4-36.5h7.6l7.3,36.5H534.5z M530.3,388.1l-2.5,14.1h4.7L530.3,388.1z"/>
		<path d="M545.4,414.8v-36.5h6.8v30.5h10.2v6H545.4z"/>
	</g>
</g>
<g>
	<polygon points="263.1,196.4 294.3,259.6 325.7,196.4 359.2,196.4 359.2,339.4 325.5,339.4 325.5,277.3 294.3,340 265.1,278.5 
		265.1,339.4 229.2,339.4 229.2,196.4 	"/>
	<rect x="392.2" y="196.4" width="36.9" height="143"/>
	<polygon points="495.8,196.4 510.1,225 524.4,196.4 563.6,196.4 529.1,267.4 565.4,339.4 526.1,339.4 510.5,308.2 494.9,339.4 
		452.9,339.4 491.1,267.4 455.9,196.4 	"/>
</g>
</svg>
