<?xml version="1.0" encoding="UTF-8" standalone="no"?>
<svg width="27px" height="26px" viewBox="0 0 27 26" version="1.1" xmlns="http://www.w3.org/2000/svg" xmlns:xlink="http://www.w3.org/1999/xlink">
    <!-- Generator: Sketch 42 (36781) - http://www.bohemiancoding.com/sketch -->
    <title>Pinterest_Icon</title>
    <desc>Created with Sketch.</desc>
    <defs></defs>
    <g id="Page-1" stroke="none" stroke-width="1" fill="none" fill-rule="evenodd">
        <g id="Group" transform="translate(-87.000000, 0.000000)" fill="#FFFFFF">
            <g id="Pinterest_Icon" transform="translate(87.752809, 0.000000)">
                <path d="M8.31978892,25.0888737 C9.48363295,22.686099 10.8589164,20.3740434 11.499471,17.7274265 C11.6090251,17.8478096 11.718495,17.9789796 11.8390888,18.0988992 C12.6727114,18.9279711 13.649555,19.3596144 14.8528385,19.26051 C16.193486,19.150071 17.318649,18.5840133 18.2890879,17.6959507 C19.7949936,16.3178441 20.6135314,14.5827174 20.8794951,12.5691548 C20.9956225,11.6899829 20.9735432,10.8164573 20.8140155,9.9490836 C20.5917049,8.74082801 20.0944134,7.65881249 19.2967751,6.7130233 C18.5725802,5.85428751 17.6944197,5.20319892 16.6794428,4.74522054 C15.1921613,4.07420152 13.6321527,3.85311287 12.0121843,4.08203886 C10.6810174,4.27009273 9.435387,4.70026121 8.30175463,5.42542524 C6.96380381,6.28125364 5.96597642,7.43304672 5.39920237,8.92614303 C4.96557871,10.0684555 4.87494374,11.26091 4.97274187,12.4716095 C5.03565122,13.2504129 5.13656742,14.0228537 5.44559433,14.7488184 C5.67018028,15.2763636 5.98059768,15.7373758 6.54703464,15.9563155 C6.8529856,16.0745918 7.16454068,16.0707574 7.47630644,15.974097 C7.73072482,15.8952601 7.8822466,15.7174875 7.98240436,15.4764684 C8.1871863,14.983517 8.063348,14.3690026 7.69284438,14.0932633 C7.65926182,14.0682766 7.62471014,14.032208 7.58704037,14.0270673 C7.33114722,13.9920522 7.30198897,13.8038719 7.25538633,13.5968146 C6.85846331,11.8326561 7.20023004,10.1999625 8.17770565,8.70838314 C9.06454629,7.35509474 10.3556417,6.5934829 11.9492749,6.34841875 C12.9186604,6.19934086 13.8831159,6.22318995 14.8227954,6.53099491 C15.6552803,6.80370041 16.3557525,7.28316825 16.9103913,7.96286732 C17.7077768,8.94000584 18.1547155,10.0629778 18.1887194,11.3230609 C18.2130742,12.2248177 18.0522403,13.1127118 17.7984118,13.9788214 C17.6101894,14.6211035 17.3490292,15.2316571 16.9482297,15.7758883 C16.1478946,16.8626652 15.0719046,17.2419331 13.7679998,16.9961948 C12.6628937,16.7879156 12.1284802,16.0293797 12.1208957,14.9456787 C12.1162607,14.2837611 12.2455346,13.6206215 12.3229388,12.9589568 C12.3293856,12.9037583 12.3884184,12.8324218 12.441173,12.8082777 C13.5439195,12.3041181 13.922134,11.1128434 13.6621115,10.0882173 C13.5488494,9.64178428 13.2586153,9.32736394 12.8556668,9.11318563 C12.448926,8.89698478 12.0112573,8.82750218 11.5553436,8.81827435 C10.8174966,8.80335814 10.2769734,9.27498864 10.0032145,9.90791653 C9.7810724,10.4214726 9.72178677,10.9651981 9.75006016,11.5168031 C9.7835163,12.1686502 9.84263339,12.8191489 9.88177793,13.4707431 C9.95543201,14.6954739 9.73767212,15.8836727 9.47887156,17.0760429 C9.12644437,18.7000564 8.81328812,20.3341826 8.54290011,21.9738286 C8.38118137,22.9543802 8.33335678,23.9537245 8.23416816,24.9445994 C8.23079727,24.9783926 8.22519315,25.011933 8.22038962,25.047201 C4.69759247,23.7903624 0.504787571,19.9469509 0.0407415803,14.0071369 C-0.425790446,8.03601577 3.15650302,2.70313165 8.62241113,0.767015315 C14.6332667,-1.3621691 20.941309,1.09635187 24.0804139,6.22546531 C27.2521743,11.4080075 26.3913738,18.0110031 22.1689051,22.2078109 C17.9307195,26.4202934 12.0921588,26.7033223 8.31978892,25.0888737" id="Fill-1"></path>
            </g>
        </g>
    </g>
</svg>