<?xml version="1.0" encoding="UTF-8" standalone="no"?>
<svg width="27px" height="24px" viewBox="0 0 27 24" version="1.1" xmlns="http://www.w3.org/2000/svg" xmlns:xlink="http://www.w3.org/1999/xlink">
    <!-- Generator: Sketch 42 (36781) - http://www.bohemiancoding.com/sketch -->
    <title>Twitter_Icon</title>
    <desc>Created with Sketch.</desc>
    <defs>
        <polygon id="path-1" points="0.000247959184 -8.21428571e-05 26.3539286 -8.21428571e-05 26.3539286 22.9167893 0.000247959184 22.9167893 0.000247959184 -8.21428571e-05"></polygon>
    </defs>
    <g id="Page-1" stroke="none" stroke-width="1" fill="none" fill-rule="evenodd">
        <g id="Group" transform="translate(-36.000000, -1.000000)">
            <g id="Twitter_Icon" transform="translate(35.842697, 1.235955)">
                <g>
                    <mask id="mask-2" fill="white">
                        <use xlink:href="#path-1"></use>
                    </mask>
                    <g id="Clip-2"></g>
                    <path d="M26.3541765,2.71128929 C25.3788704,3.17950357 24.342401,3.48178929 23.2439418,3.62225357 C24.3630643,2.90596786 25.2226561,1.77814643 25.6293092,0.426896429 C24.5820949,1.08568214 23.423299,1.55800357 22.1884622,1.83318214 C21.2057173,0.703717857 19.7956561,-0.000246428571 18.2442582,-0.000246428571 C15.2588296,-0.000246428571 12.8379214,2.58725357 12.8379214,5.78589643 C12.8379214,6.23521786 12.8850337,6.67961071 12.9751255,7.09771786 C8.48954388,6.86771786 4.49988061,4.55539643 1.8318398,1.06186071 C1.36815612,1.91368214 1.1028398,2.90596786 1.1028398,3.96971786 C1.1028398,5.97236071 2.05582959,7.75403929 3.50887041,8.77589643 C2.62117653,8.73975357 1.78720714,8.49414643 1.05903367,8.056325 L1.05903367,8.13600357 C1.05903367,10.9329679 2.9228602,13.2682893 5.3958398,13.8079679 C4.94290102,13.9393964 4.4643398,13.9993607 3.9675949,13.9993607 C3.62045204,13.9993607 3.29066633,13.9755393 2.95674796,13.8966821 C3.64194184,16.2032536 5.64049286,17.8781464 8.00602347,17.9126464 C6.15542143,19.4717179 3.8246051,20.3884321 1.29128878,20.3884321 C0.853227551,20.3884321 0.421778571,20.3629679 0.000247959184,20.3071107 C2.39222755,21.9565393 5.22888061,22.9167893 8.28869694,22.9167893 C18.2326867,22.9167893 23.6737378,14.099575 23.6737378,6.45536071 C23.6737378,6.21139643 23.667952,5.963325 23.6555541,5.71525357 C24.7110337,4.88889643 25.6293092,3.86868214 26.3541765,2.71128929" id="Fill-1" fill="#FEFEFE" mask="url(#mask-2)"></path>
                </g>
            </g>
        </g>
    </g>
</svg>