<?xml version="1.0" encoding="utf-8"?>
<!-- Generator: Adobe Illustrator 21.0.2, SVG Export Plug-In . SVG Version: 6.00 Build 0)  -->
<svg version="1.1" id="Layer_1" xmlns="http://www.w3.org/2000/svg" xmlns:xlink="http://www.w3.org/1999/xlink" x="0px" y="0px"
	 viewBox="0 0 39.6 39.9" style="enable-background:new 0 0 39.6 39.9;" xml:space="preserve">
<style type="text/css">
	.st0{fill:#FFFFFF;}
	.st1{filter:url(#Adobe_OpacityMaskFilter);}
	.st2{mask:url(#mask-2);fill:#EE3D42;}
</style>
<title>VCF_Square</title>
<desc>Created with Sketch.</desc>
<g id="Symbols">
	<g id="Nav_850px" transform="translate(-406.000000, -47.000000)">
		<g id="VCF_Square" transform="translate(406.000000, 47.000000)">
			<g id="Page-1">
				<path id="Fill-1" class="st0" d="M25.8,23.9v-1.6h-3.3v1.5c0,1.1-0.6,1.6-1.3,1.7v2.9C24.1,28.1,25.8,26.6,25.8,23.9"/>
				<path id="Fill-3" class="st0" d="M22.6,16.5V18h3.3v-1.6c0-2.8-1.8-4.3-4.6-4.5v2.9C21.9,14.9,22.6,15.4,22.6,16.5"/>
				<polygon id="Fill-5" class="st0" points="31.9,26.5 31.9,12.3 28.6,12.3 28.6,27.9 31.9,27.9 				"/>
				<polygon id="Fill-7" class="st0" points="35.7,21.5 35.7,18.8 33,18.8 33,21.5 34.5,21.5 				"/>
				<polygon id="Fill-9" class="st0" points="37.1,15 37.1,12.3 33,12.3 33,15 35.6,15 				"/>
				<polygon id="Fill-11" class="st0" points="9.7,27.9 6.3,12.3 2.9,12.3 6.5,27.9 				"/>
				<polygon id="Fill-13" class="st0" points="14.1,12.3 10.9,12.3 9,19.6 10.5,26.4 				"/>
				<path id="Fill-15" class="st0" d="M20.2,28.3v-2.9c-0.8-0.2-1.3-0.8-1.3-1.7v-7.3c0-0.9,0.5-1.5,1.3-1.7v-2.9
					c-3,0.2-4.7,1.9-4.7,4.8v6.9C15.5,26.4,17.2,28.1,20.2,28.3"/>
				<g id="Group-19" transform="translate(0.000000, 0.033607)">
					<g id="Clip-18">
					</g>
					<defs>
						<filter id="Adobe_OpacityMaskFilter" filterUnits="userSpaceOnUse" x="0" y="0" width="39.6" height="39.9">
							<feColorMatrix  type="matrix" values="1 0 0 0 0  0 1 0 0 0  0 0 1 0 0  0 0 0 1 0"/>
						</filter>
					</defs>
					<mask maskUnits="userSpaceOnUse" x="0" y="0" width="39.6" height="39.9" id="mask-2">
						<g class="st1">
							<polygon id="path-1" class="st0" points="39.6,0 0,0 0,39.9 39.6,39.9 							"/>
						</g>
					</mask>
					<path id="Fill-17" class="st2" d="M0,0v39.9h36.1h3.5v-5.5V4.6V0H0z M9.7,27.9H6.5L2.9,12.3h3.4L9.7,27.9z M9,19.6l1.9-7.3h3.3
						l-3.6,14.1L9,19.6z M20.2,25.4v2.9c-3-0.2-4.7-1.9-4.7-4.8v-6.9c0-2.8,1.7-4.5,4.7-4.8v2.9c-0.8,0.2-1.3,0.8-1.3,1.7v7.3
						C18.9,24.6,19.4,25.3,20.2,25.4L20.2,25.4z M21.3,14.8v-2.9c2.8,0.2,4.6,1.7,4.6,4.5v1.6h-3.3v-1.5
						C22.6,15.4,21.9,14.9,21.3,14.8L21.3,14.8z M22.6,23.7v-1.5h3.3v1.6c0,2.8-1.8,4.3-4.6,4.5v-2.9C21.9,25.3,22.6,24.8,22.6,23.7
						L22.6,23.7z M28.6,27.9V12.3h3.3v14.2v1.4H28.6z M35.7,18.7v2.7h-1.2H33v-2.7H35.7z M33,15v-2.7h4.1V15h-1.5H33z"/>
				</g>
			</g>
		</g>
	</g>
</g>
</svg>
