<?xml version="1.0" encoding="utf-8"?>
<!-- Generator: Adobe Illustrator 21.0.2, SVG Export Plug-In . SVG Version: 6.00 Build 0)  -->
<svg version="1.1" id="Layer_1" xmlns="http://www.w3.org/2000/svg" xmlns:xlink="http://www.w3.org/1999/xlink" x="0px" y="0px"
	 viewBox="0 0 188 52" style="enable-background:new 0 0 188 52;" xml:space="preserve">
<style type="text/css">
	.st0{fill:#231F1F;}
	.st1{fill:#FFFFFF;}
	.st2{filter:url(#Adobe_OpacityMaskFilter);}
	.st3{mask:url(#mask-2);fill:#EE3D42;}
</style>
<title>VCF Logo</title>
<desc>Created with Sketch.</desc>
<g id="Symbols">
	<g id="Desktop_Nav_1200px" transform="translate(-508.000000, -53.000000)">
		<g id="VCF-Logo" transform="translate(508.000000, 53.000000)">
			<g id="Group-59" transform="translate(0.000000, 0.043726)">
				<path id="Fill-2" class="st0" d="M91.4,43.5c0,1.1-0.6,1.7-1.8,1.7c-1.1,0-1.8-0.6-1.8-1.7V28.8h-3.6v14.7
					c0,2.9,2.3,4.8,5.4,4.8s5.3-2,5.3-4.8V28.8h-3.5V43.5z"/>
				<path id="Fill-4" class="st0" d="M108.7,41.5c0-1.2-0.7-2.5-2.2-2.9c1.5-0.5,2.2-1.5,2.2-3V33c0-2.7-1.8-4.2-4.4-4.2h-5.9v19.1
					h3.6V40h1.9c1,0,1.5,0.7,1.5,1.6v3.6c0,1.7,0.5,2.8,2,2.8h2.2V47c-0.4-0.5-0.7-1.1-0.7-1.9V41.5z M105.2,35.9
					c0,1-0.5,1.5-1.4,1.5H102v-5.6h2c0.9,0,1.3,0.5,1.3,1.4V35.9z"/>
				<polygon id="Fill-6" class="st0" points="120,40.1 118.7,37.1 115.2,28.8 112.1,28.8 112.1,47.9 115.4,47.9 115.4,36.7 
					116.7,39.8 120.4,47.9 123.2,47.9 123.2,28.8 120,28.8 				"/>
				<polygon id="Fill-8" class="st0" points="126.8,47.9 130.3,47.9 130.3,46 130.3,28.8 126.8,28.8 				"/>
				<polygon id="Fill-10" class="st0" points="133,32 136.5,32 136.5,47.9 140.1,47.9 140.1,32 143.6,32 143.6,28.8 133,28.8 				
					"/>
				<path id="Fill-12" class="st0" d="M153.4,43.5c0,1.1-0.6,1.7-1.8,1.7c-1.1,0-1.8-0.6-1.8-1.7V28.8h-3.6v14.7
					c0,2.9,2.3,4.8,5.4,4.8c3.1,0,5.3-2,5.3-4.8V28.8h-3.5V43.5z"/>
				<path id="Fill-14" class="st0" d="M170.8,41.5c0-1.2-0.7-2.5-2.2-2.9c1.5-0.5,2.2-1.5,2.2-3V33c0-2.7-1.8-4.2-4.4-4.2h-5.9v19.1
					h3.6V40h1.9c1,0,1.5,0.7,1.5,1.6v3.6c0,1.7,0.5,2.8,2,2.8h2.2V47c-0.4-0.5-0.7-1.1-0.7-1.9V41.5z M167.3,35.9
					c0,1-0.5,1.5-1.4,1.5H164v-5.6h2c0.9,0,1.3,0.5,1.3,1.4V35.9z"/>
				<polygon id="Fill-16" class="st0" points="174.2,47.9 183.3,47.9 183.3,44.7 177.8,44.7 177.8,39.4 181.6,39.4 181.6,36.6 
					177.8,36.6 177.8,31.9 183.3,31.9 183.3,28.8 174.2,28.8 				"/>
				<polygon id="Fill-18" class="st0" points="76.6,17.1 74.3,4 70.6,4 74.8,23 78.2,23 82.5,4 79,4 				"/>
				<path id="Fill-20" class="st0" d="M86.9,19.3h3.4l0.6,3.8h3.6L90.7,4h-4L82.9,23h3.3L86.9,19.3z M88.7,9.1l1.1,7.4h-2.4
					L88.7,9.1z"/>
				<polygon id="Fill-22" class="st0" points="106.3,19.9 100.9,19.9 100.9,4 97.4,4 97.4,23 106.3,23 				"/>
				<path id="Fill-24" class="st0" d="M118.9,18.6V4h-3.5v14.7c0,1.1-0.6,1.7-1.8,1.7c-1.1,0-1.8-0.6-1.8-1.7V4h-3.6v14.7
					c0,2.9,2.3,4.8,5.4,4.8S118.9,21.5,118.9,18.6"/>
				<polygon id="Fill-26" class="st0" points="122.5,23 131.7,23 131.7,19.9 126.1,19.9 126.1,14.6 130,14.6 130,11.7 126.1,11.7 
					126.1,7 131.7,7 131.7,4 122.5,4 				"/>
				<path id="Fill-28" class="st0" d="M150.8,18.5v-2.3h-3.2v2.3c0,1.1-0.6,1.9-1.9,1.9c-1.3,0-2-0.8-2-1.8v-10c0-1.1,0.7-1.8,2-1.8
					c1.3,0,1.9,0.8,1.9,1.9v2.3h3.2V8.5c0-2.9-1.8-5-5.2-5c-3.4,0-5.5,2.3-5.5,5.2v9.5c0,3,2.1,5.2,5.5,5.2
					C149,23.5,150.8,21.3,150.8,18.5"/>
				<polygon id="Fill-30" class="st0" points="154.7,23 158.2,23 158.2,21 158.2,4 154.7,4 				"/>
				<polygon id="Fill-32" class="st0" points="161,7.1 164.5,7.1 164.5,23 168.1,23 168.1,7.1 171.6,7.1 171.6,4 161,4 				"/>
				<polygon id="Fill-34" class="st0" points="176.6,23 180.2,23 180.2,15.2 184.5,4 181,4 178.6,11.7 176.2,4 172.4,4 176.6,15.2 
									"/>
				<path id="Fill-36" class="st1" d="M34,31v-2.1h-4.3v1.9c0,1.4-0.9,2.1-1.7,2.3v3.7C31.7,36.6,34,34.6,34,31"/>
				<path id="Fill-38" class="st1" d="M29.7,21.5v1.9H34v-2.1c0-3.6-2.3-5.6-6-5.8v3.7C28.8,19.4,29.7,20,29.7,21.5"/>
				<polygon id="Fill-40" class="st1" points="42,34.5 42,15.9 37.7,15.9 37.7,36.3 42,36.3 				"/>
				<polygon id="Fill-42" class="st1" points="47,27.9 47,24.4 43.4,24.4 43.4,27.9 45.4,27.9 				"/>
				<polygon id="Fill-44" class="st1" points="48.8,19.5 48.8,15.9 43.4,15.9 43.4,19.5 46.9,19.5 				"/>
				<polygon id="Fill-46" class="st1" points="12.8,36.3 8.3,15.9 3.8,15.9 8.5,36.3 				"/>
				<polygon id="Fill-48" class="st1" points="18.6,15.9 14.3,15.9 11.9,25.5 13.8,34.3 				"/>
				<path id="Fill-50" class="st1" d="M26.5,36.8v-3.7c-1.1-0.2-1.7-1-1.7-2.2v-9.5c0-1.1,0.6-2,1.7-2.2v-3.7
					c-3.9,0.3-6.2,2.5-6.2,6.2v9C20.4,34.3,22.6,36.5,26.5,36.8"/>
				<g id="Group-54">
					<g id="Clip-53">
					</g>
					<defs>
						<filter id="Adobe_OpacityMaskFilter" filterUnits="userSpaceOnUse" x="0" y="0" width="52.1" height="52">
							<feColorMatrix  type="matrix" values="1 0 0 0 0  0 1 0 0 0  0 0 1 0 0  0 0 0 1 0"/>
						</filter>
					</defs>
					<mask maskUnits="userSpaceOnUse" x="0" y="0" width="52.1" height="52" id="mask-2">
						<g class="st2">
							<polygon id="path-1" class="st1" points="52.1,0 0,0 0,51.9 52.1,51.9 							"/>
						</g>
					</mask>
					<path id="Fill-52" class="st3" d="M0,0v52h47.5h4.6v-7.2V6V0H0z M12.8,36.3H8.5L3.8,15.9h4.5L12.8,36.3z M11.9,25.5l2.4-9.5
						h4.3l-4.8,18.3L11.9,25.5z M26.5,33.1v3.7c-3.9-0.3-6.2-2.5-6.2-6.2v-9c0-3.7,2.3-5.9,6.2-6.2v3.7c-1.1,0.2-1.7,1-1.7,2.2v9.5
						C24.8,32,25.5,32.9,26.5,33.1L26.5,33.1z M28,19.2v-3.7c3.7,0.2,6,2.2,6,5.8v2.1h-4.3v-1.9C29.7,20,28.8,19.4,28,19.2L28,19.2z
						 M29.7,30.8v-1.9H34V31c0,3.6-2.3,5.6-6,5.8v-3.7C28.8,32.9,29.7,32.2,29.7,30.8L29.7,30.8z M37.7,36.3V15.9H42v18.5v1.8H37.7z
						 M47,24.4v3.5h-1.6h-1.9v-3.5H47z M43.4,19.5v-3.5h5.4v3.5h-2H43.4z"/>
				</g>
				<path id="Fill-55" class="st0" d="M186.8,30c0-0.4-0.2-0.5-0.6-0.5h-0.7v1.8h0.3v-0.7h0.3l0.5,0.7h0.3l-0.5-0.8
					C186.6,30.5,186.8,30.3,186.8,30L186.8,30z M185.7,30.3v-0.5h0.4c0.2,0,0.4,0,0.4,0.3c0,0.3-0.2,0.3-0.5,0.3H185.7z"/>
				<path id="Fill-57" class="st0" d="M186.1,28.8c-0.8,0-1.5,0.7-1.5,1.5c0,0.8,0.7,1.5,1.5,1.5c0.8,0,1.5-0.7,1.5-1.5
					C187.6,29.5,186.9,28.8,186.1,28.8 M186.1,31.6c-0.7,0-1.3-0.6-1.3-1.3c0-0.7,0.6-1.3,1.3-1.3c0.7,0,1.3,0.6,1.3,1.3
					C187.3,31.1,186.8,31.6,186.1,31.6"/>
				<polygon id="Fill-1" class="st0" points="72.5,47.9 76.1,47.9 76.1,39.8 80.1,39.8 80.1,36.8 76.1,36.8 76.1,31.8 81.5,31.8 
					81.5,28.8 72.5,28.8 				"/>
			</g>
		</g>
	</g>
</g>
</svg>
