<?xml version="1.0" encoding="UTF-8" standalone="no"?>
<svg width="33px" height="23px" viewBox="0 0 33 23" version="1.1" xmlns="http://www.w3.org/2000/svg" xmlns:xlink="http://www.w3.org/1999/xlink">
    <!-- Generator: Sketch 42 (36781) - http://www.bohemiancoding.com/sketch -->
    <title>Youtube_Icon</title>
    <desc>Created with Sketch.</desc>
    <defs>
        <polygon id="path-1" points="32.3050252 -2.86824591e-15 0 -2.86824591e-15 0 21.9907156 32.3050252 21.9907156 32.3050252 3.94430453e-31"></polygon>
    </defs>
    <g id="Page-1" stroke="none" stroke-width="1" fill="none" fill-rule="evenodd">
        <g id="Group" transform="translate(-137.000000, -3.000000)">
            <g id="Youtube_Icon" transform="translate(137.191011, 3.707865)">
                <g id="Page-1">
                    <mask id="mask-2" fill="white">
                        <use xlink:href="#path-1"></use>
                    </mask>
                    <g id="Clip-2"></g>
                    <path d="M22.2578979,10.691011 C18.8006388,8.92732752 15.4128922,7.19906606 11.9923245,5.45410275 L11.9923245,15.8949697 C15.414492,14.1601486 18.8002775,12.4437954 22.2578979,10.691011 M-2.06422018e-05,13.5684193 L-2.06422018e-05,8.42163028 C0.013809633,8.33963486 0.0351743119,8.25814404 0.0403348624,8.17564404 C0.0794518349,7.54682752 0.102209862,6.91674954 0.155311927,6.28914404 C0.247427752,5.1999422 0.351877294,4.10594679 0.728700688,3.07063486 C1.23216399,1.68730917 2.23568463,0.804382569 3.71315023,0.500217431 C4.31548968,0.376189908 4.9382133,0.322602752 5.55448624,0.291822936 C7.7169117,0.183992661 9.87985321,0.0503779817 12.0439817,0.0191440367 C14.9312064,-0.0225348624 17.8198761,0.013946789 20.7078234,0.0326669725 C23.1494346,0.0485614679 25.5859885,0.16517156 28.0173819,0.400611927 C29.8336376,0.576410092 31.3103291,1.7201578 31.7107878,3.45341468 C31.9540046,4.50603394 32.0538096,5.59175413 32.1889128,6.6661211 C32.259922,7.23060275 32.2683337,7.80255229 32.3050252,8.37117156 L32.3050252,13.5684193 C32.2909885,13.6668642 32.2701915,13.7649055 32.2639989,13.8638046 C32.2241594,14.5010477 32.2028463,15.1398046 32.1464415,15.7755339 C32.051281,16.8470752 31.9518372,17.9246716 31.5725367,18.9422725 C31.0618486,20.3126303 30.0624048,21.1840523 28.5962408,21.4907908 C28.0612982,21.6027083 27.5079323,21.6535202 26.9603463,21.6808688 C24.7293888,21.7923321 22.4981732,21.9352312 20.2655642,21.9698963 C17.3784943,22.0147541 14.4898761,21.9760523 11.6020321,21.956878 C9.16047248,21.9406303 6.72391858,21.8252312 4.29252523,21.5894376 C2.38750803,21.4047587 0.898327982,20.1625156 0.546997706,18.3167358 C0.341504587,17.2374743 0.231946101,16.1399972 0.0998360092,15.0483229 C0.0405412844,14.5580156 0.0317167431,14.0619055 -2.06422018e-05,13.5684193" id="Fill-1" fill="#FFFFFF" mask="url(#mask-2)"></path>
                </g>
            </g>
        </g>
    </g>
</svg>