<?xml version="1.0" encoding="UTF-8" standalone="no"?>
<svg width="130px" height="130px" viewBox="0 0 130 130" version="1.1" xmlns="http://www.w3.org/2000/svg" xmlns:xlink="http://www.w3.org/1999/xlink">
    <!-- Generator: Sketch 3.8.3 (29802) - http://www.bohemiancoding.com/sketch -->
    <title>Fill 1</title>
    <desc>Created with Sketch.</desc>
    <defs></defs>
    <g id="Page-1" stroke="none" stroke-width="1" fill="none" fill-rule="evenodd">
        <g id="site-builder-logo" transform="translate(0.000000, -27.000000)" fill="#ECF0F1">
            <path d="M72.321,142.207 L115.057,142.207 L115.057,118.647 L72.321,118.647 L72.321,142.207 Z M14.79,142.207 L57.531,142.207 L57.531,118.647 L14.79,118.647 L14.79,142.207 Z M14.79,65.5 L57.531,65.5 L57.531,41.941 L14.79,41.941 L14.79,65.5 Z M14.79,103.853 L39.038,103.853 L39.038,80.295 L14.79,80.295 L14.79,103.853 Z M53.833,103.853 L115.057,103.853 L115.057,80.295 L53.833,80.295 L53.833,103.853 Z M72.321,65.5 L115.057,65.5 L115.057,41.941 L72.321,41.941 L72.321,65.5 Z M0,157 L129.85,157 L129.85,27.147 L0,27.147 L0,157 Z" id="Fill-1"></path>
        </g>
    </g>
</svg>