<?xml version="1.0" encoding="utf-8"?>
<!-- Generator: Adobe Illustrator 21.0.0, SVG Export Plug-In . SVG Version: 6.00 Build 0)  -->
<svg version="1.1" id="Mix-Modern-Logo" xmlns="http://www.w3.org/2000/svg" xmlns:xlink="http://www.w3.org/1999/xlink" x="0px"
	 y="0px" viewBox="0 0 792 612" style="enable-background:new 0 0 792 612;" xml:space="preserve">
<style type="text/css">
	.st0{fill:#FFFFFF;}
</style>
<g>
	<g>
		<path class="st0" d="M292.4,414.8v-26.2l-1.5,7.9l-3.9,18.3h-5.1l-3.6-18.3l-1.4-7.9v26.2h-6v-36.1h9.1l3.7,18.3l1.1,6.7l1.2-6.7
			l3.7-18.3h9v36.1H292.4z"/>
		<path class="st0" d="M314.6,415.6c-6.3,0-10.3-4.1-10.3-9.9v-18c0-5.7,4-9.8,10.3-9.8c6.3,0,10.3,4.1,10.3,9.8v18
			C324.9,411.5,321,415.6,314.6,415.6z M318.1,387.3c0-2.1-1.2-3.5-3.5-3.5c-2.2,0-3.4,1.4-3.4,3.5v18.9c0,2.1,1.2,3.5,3.4,3.5
			c2.2,0,3.5-1.4,3.5-3.5V387.3z"/>
		<path class="st0" d="M340.9,414.8h-10.4v-36.1h10.4c6.3,0,9.9,4.1,9.9,9.8v16.9C350.8,411.1,347.3,414.8,340.9,414.8z M344,388.5
			c0-2.6-1.1-4-3.6-4h-3.2V409h3.2c2.5,0,3.6-1.4,3.6-4V388.5z"/>
		<path class="st0" d="M356.4,414.8v-36.1h17.3v5.8h-10.5v9h7.3v5.3h-7.3v10h10.5v6H356.4z"/>
		<path class="st0" d="M395.4,415c-2.7,0-3.7-2.2-3.7-5.3v-6.8c0-1.7-0.9-3.1-2.8-3.1h-3.5v15h-6.7v-36.1h11.1
			c4.9,0,8.2,2.8,8.2,7.9v5.1c0,2.7-1.2,4.7-4.1,5.6c2.8,0.8,4.2,3.1,4.2,5.5v6.6c0,1.7,0.5,2.8,1.3,3.7v2H395.4z M391.5,386.8
			c0-1.6-0.7-2.6-2.4-2.6h-3.7v10.6h3.4c1.7,0,2.7-0.9,2.7-2.9V386.8z"/>
		<path class="st0" d="M419.6,414.8l-7-15.4l-2.5-5.8v21.2h-6.2v-36.1h5.8l6.7,15.7l2.4,5.8v-21.4h6.1v36.1H419.6z"/>
		<path class="st0" d="M444.2,423.8c-7.5-6-11.3-15-11.3-25.3s3.8-19.4,11.3-25.3l1.6,1.8c-4.6,5.6-7.3,13-7.3,23.5
			c0,10.6,2.7,17.9,7.3,23.5L444.2,423.8z"/>
		<path class="st0" d="M449.2,414.8v-36.1h6.7v36.1H449.2z"/>
		<path class="st0" d="M471.1,415.6c-6.2,0-10-3.7-10-9.3v-2.5h6.2v2.1c0,2.7,1.2,4.1,3.7,4.1c2.4,0,3.6-1.4,3.6-3.6
			c0-2.9-1.8-4.8-5.4-7.5c-3.7-2.7-7.7-6.2-7.7-11.3c0-5.2,3.4-9.7,9.9-9.7c5.7,0,9.5,3.9,9.5,9.3v2.3h-6.1v-2.2
			c0-2.2-1.1-3.9-3.4-3.9c-2,0-3.3,1.2-3.3,3.3c0,3,1.8,4.6,5.8,7.5c4.3,3.2,7.3,6.5,7.3,11.3C481,411.4,477,415.6,471.1,415.6z"/>
		<path class="st0" d="M500.3,414.8V400h-7.5v14.8H486v-36.1h6.7V394h7.5v-15.3h6.8v36.1H500.3z"/>
		<path class="st0" d="M512.2,423.8l-1.7-1.8c4.6-5.6,7.4-12.9,7.4-23.5c0-10.6-2.8-17.9-7.4-23.5l1.7-1.8c7.4,6,11.3,15,11.3,25.3
			S519.6,417.8,512.2,423.8z"/>
	</g>
	<path class="st0" d="M648.3,558h-504V54h504V558z M165,537.2h462.5V74.8H165V537.2z"/>
</g>
<g>
	<polygon class="st0" points="263.1,196.4 294.3,259.6 325.7,196.4 359.2,196.4 359.2,339.4 325.5,339.4 325.5,277.3 294.3,340 
		265.1,278.5 265.1,339.4 229.2,339.4 229.2,196.4 	"/>
	<rect x="392.2" y="196.4" class="st0" width="36.9" height="143"/>
	<polygon class="st0" points="495.8,196.4 510.1,225 524.4,196.4 563.6,196.4 529.1,267.4 565.4,339.4 526.1,339.4 510.5,308.2 
		494.9,339.4 452.9,339.4 491.1,267.4 455.9,196.4 	"/>
</g>
</svg>
