<svg version="1.1" id="Layer_1" xmlns="http://www.w3.org/2000/svg" xmlns:xlink="http://www.w3.org/1999/xlink" x="0px" y="0px"
	 viewBox="0 0 14 14" xml:space="preserve">
	<g>
		<ellipse transform="matrix(2.139180e-03 -1 1 2.139180e-03 -8.5672 16.304)"  cx="3.9" cy="12.4" rx="1.6" ry="1.6"/>
		<ellipse transform="matrix(2.139180e-03 -1 1 2.139180e-03 -0.8039 24.084)"  cx="11.7" cy="12.4" rx="1.6" ry="1.6"/>
		<path d="M5.1,8.8l8.6-2.5C13.9,6.3,14,6.1,14,5.9V1.6H3V0.3C3,0.1,2.9,0,2.7,0H0.3C0.1,0,0,0.1,0,0.3v1.2h1.5l1.5,7
			l0.2,0.7v1.2c0,0.2,0.1,0.3,0.3,0.3h10.2c0.2,0,0.3-0.1,0.3-0.3V9.3H5.2c-0.1,0-0.1,0-0.2,0L5.1,8.8C5.1,8.8,5.1,8.8,5.1,8.8z"/>
	</g>
</svg>
